<?xml version="1.0" encoding="UTF-8"?>
<svg version="1.1" xmlns="http://www.w3.org/2000/svg" width="500" height="500">
<path d="M0 0 C110.88 0 221.76 0 336 0 C334.84363658 35.84726587 334.84363658 35.84726587 333.61746216 51.84716797 C333.52812534 53.02348785 333.43878853 54.19980774 333.34674454 55.41177368 C333.2542329 56.62827606 333.16172127 57.84477844 333.06640625 59.09814453 C332.87028479 61.74164969 332.6746806 64.38518856 332.47970581 67.02877808 C332.06431809 72.64723285 331.64432531 78.26532672 331.22091675 83.88318253 C330.60772925 92.0191283 330.00191828 100.15561119 329.39770472 108.29222773 C328.41507086 121.52218562 327.426694 134.75170765 326.43457031 147.98095703 C325.47504872 160.77564578 324.51837596 173.57054243 323.56542969 186.36572266 C323.5065179 187.15671679 323.44760612 187.94771093 323.38690913 188.76267458 C323.09114861 192.73399646 322.79543928 196.70532214 322.49975014 200.67664933 C320.64930011 225.5284546 318.79452871 250.37993467 316.93359375 275.23095703 C316.84108212 276.46687843 316.74857048 277.70279984 316.65325546 278.9761734 C316.56391865 280.16951042 316.47458183 281.36284744 316.38253784 282.59234619 C316.2538179 284.31201808 316.2538179 284.31201808 316.12249756 286.06643081 C315.88428786 289.24194474 315.64445471 292.41733297 315.4045105 295.59271622 C315.16001343 298.83571173 314.92233864 302.07892185 314.69827271 305.32339096 C314.61616547 306.48421314 314.53405823 307.64503532 314.44946289 308.84103394 C314.38714981 309.76503935 314.32483673 310.68904476 314.26063538 311.64105034 C313.41095761 319.33128449 309.65021026 324.82367834 304 330 C301.01785589 331.77762061 298.83105157 332.25211793 295.3759346 332.26285553 C294.44632077 332.27053782 293.51670695 332.27822011 292.55892301 332.2861352 C291.54103908 332.28440223 290.52315516 332.28266927 289.47442627 332.28088379 C288.39042817 332.28682603 287.30643007 332.29276828 286.18958354 332.29889059 C282.5446523 332.31628195 278.8998523 332.31928251 275.25488281 332.32226562 C272.64661375 332.33152073 270.03834741 332.34156988 267.43008423 332.35235596 C260.33497578 332.37951076 253.23988996 332.39157019 246.1447382 332.40037727 C241.71368239 332.40590418 237.2826353 332.41437927 232.85158539 332.42338562 C220.58095981 332.44776951 208.31034121 332.46836836 196.03969193 332.4751358 C195.25446031 332.47557494 194.4692287 332.47601407 193.66020219 332.47646651 C192.8731021 332.47690306 192.08600201 332.47733962 191.2750504 332.4777894 C189.68011172 332.47867633 188.08517305 332.47956946 186.49023438 332.48046875 C185.30351982 332.48113304 185.30351982 332.48113304 184.09283122 332.48181075 C171.27526297 332.48970574 158.4579222 332.52461123 145.64044181 332.57118779 C132.47788303 332.61863185 119.31543836 332.64354027 106.15279269 332.64587164 C98.76363405 332.64770424 91.37477181 332.65918537 83.98569489 332.69551086 C77.03511654 332.72956047 70.08510922 332.73280577 63.13447189 332.71523285 C60.58352274 332.71368966 58.03254362 332.72240992 55.48167038 332.74214935 C51.99827727 332.7675239 48.51688713 332.75587365 45.0335083 332.73498535 C43.52006675 332.75915457 43.52006675 332.75915457 41.97605062 332.78381205 C34.99652507 332.68595717 31.00585626 330.86477548 26 326 C19.3839432 318.51340941 19.68464641 307.09759016 19.04490662 297.55531311 C18.92702045 295.90710096 18.92702045 295.90710096 18.80675274 294.2255916 C18.54690992 290.57143345 18.2957756 286.91673156 18.04467773 283.26196289 C17.85931931 280.62909308 17.67348537 277.99626064 17.48709106 275.36346436 C17.03526556 268.96506987 16.59008221 262.56623013 16.14737373 256.16719902 C15.78624417 250.94880227 15.42279246 245.73057203 15.05772591 240.51244926 C15.00555375 239.76666006 14.95338158 239.02087086 14.89962845 238.25248198 C14.79357788 236.73660393 14.68752366 235.22072613 14.58146585 233.70484858 C13.58778967 219.49795706 12.60184093 205.2905372 11.6184122 191.08293318 C10.7798707 178.97141382 9.93417292 166.86041152 9.08325195 154.74975586 C8.09108617 140.62884603 7.1040292 126.50759254 6.12437397 112.38580889 C6.01907687 110.86818698 5.91377169 109.35056564 5.80845833 107.83294487 C5.75667092 107.08665327 5.70488351 106.34036167 5.65152679 105.57145517 C5.29163966 100.39028518 4.92823939 95.20936901 4.56332207 90.0285511 C4.11541809 83.66845112 3.67310955 77.30798845 3.23724895 70.94705141 C3.01599629 67.72004045 2.79182652 64.49328675 2.5624218 61.2668438 C1.11165788 40.82716386 0.56996278 20.51865997 0 0 Z M106.1875 52.9375 C103.50393808 57.59842333 103.85549315 62.8359072 103.86628723 68.0710144 C103.86402167 68.87889094 103.86175612 69.68676747 103.85942191 70.5191251 C103.85309674 73.22353939 103.85391032 75.92790336 103.85473633 78.63232422 C103.85174393 80.57241887 103.84834121 82.51251293 103.84455872 84.4526062 C103.83572308 89.72121032 103.83338079 94.98979821 103.83274293 100.25840902 C103.83179325 104.65703284 103.82811429 109.05565288 103.82457083 113.45427525 C103.81642804 123.83198623 103.81398645 134.20968854 103.81469727 144.58740234 C103.81529812 155.29205007 103.80474428 165.99664741 103.7889536 176.70128238 C103.77587801 185.89292636 103.77051337 195.08455388 103.77115268 204.27620709 C103.77140764 209.7654638 103.76855702 215.25467574 103.75797462 220.74392319 C103.74829328 225.9067194 103.74821475 231.06942802 103.75549126 236.23222733 C103.75653703 238.12565997 103.75417466 240.01909807 103.7481308 241.91252136 C103.7404069 244.50012322 103.74505832 247.0874229 103.75276184 249.67501831 C103.74761828 250.42162558 103.74247471 251.16823286 103.73717529 251.93746459 C103.77086963 257.07035495 104.04655204 262.632506 107.4375 266.7421875 C112.42365773 270.35715185 114.75484291 271.41634381 121 271 C124.59147405 269.68773064 126.48835412 268.67043254 128.8125 265.625 C131.12808773 260.50633238 131.14684485 255.48246271 131.14044189 249.94244385 C131.14341302 249.13597845 131.14638414 248.32951305 131.1494453 247.4986093 C131.15811019 244.798867 131.15963867 242.09916916 131.16113281 239.39941406 C131.16576254 237.46256414 131.17078741 235.52571514 131.17617798 233.58886719 C131.18928886 228.3283965 131.19574436 223.06793858 131.20018864 217.80745411 C131.20312142 214.51964204 131.20722661 211.23183345 131.21169281 207.94402313 C131.22536415 197.65347378 131.23503265 187.36293238 131.2388947 177.07237458 C131.243375 165.20033814 131.26092315 153.32841685 131.2898953 141.45641541 C131.31152253 132.27493118 131.32159954 123.09347933 131.32293582 113.9119699 C131.32398308 108.43044719 131.32987413 102.94903278 131.34775543 97.46753693 C131.36425411 92.30962979 131.36638283 87.15191218 131.35761642 81.99398804 C131.35684702 80.10461672 131.36117596 78.21523513 131.37107468 76.32588959 C131.38383005 73.73886614 131.37789811 71.15251035 131.36749268 68.56549072 C131.37554908 67.82470913 131.38360548 67.08392754 131.39190602 66.32069802 C131.3415705 60.93911327 130.42961382 55.8502177 128 51 C124.73624549 47.99501489 121.80568114 47.11307806 117.4375 46.5 C112.49492152 47.21892051 109.56164235 49.33065818 106.1875 52.9375 Z M209 50 C204.95472284 55.44020032 204.85209866 60.47321709 204.85955811 67.06465149 C204.85658698 67.88392425 204.85361586 68.70319702 204.8505547 69.54729623 C204.84187371 72.29627095 204.84035997 75.0452021 204.83886719 77.79418945 C204.83423862 79.76369317 204.82921391 81.73319598 204.82382202 83.70269775 C204.81070042 89.05606561 204.80425361 94.40942093 204.79981136 99.76280236 C204.79688047 103.10704419 204.79277564 106.45128259 204.78830719 109.79552269 C204.77463337 120.25799872 204.76496594 130.72046692 204.7611053 141.18295127 C204.75662362 153.26216876 204.73907011 165.34127314 204.7101047 177.42045623 C204.68849402 186.75645248 204.67840136 196.09241689 204.67706418 205.42843789 C204.67601579 211.0049262 204.67010048 216.58130817 204.65224457 222.15777016 C204.63577439 227.4034799 204.63360332 232.64900324 204.64238358 237.89472961 C204.64315449 239.81880378 204.63880407 241.74288792 204.62892532 243.66693687 C204.61621809 246.2963124 204.62207591 248.92502649 204.63250732 251.55439758 C204.62445092 252.31335982 204.61639452 253.07232206 204.60809398 253.85428315 C204.65519901 258.94112527 205.62016884 262.47977802 208 267 C211.18889351 269.89225225 213.7446783 271.24777252 218 271.5 C222.2238281 271.26579156 224.77771428 269.77266445 228 267 C231.30746694 262.73282967 231.42764366 258.82427091 231.38768005 253.61854553 C231.39306559 252.77729502 231.39845113 251.9360445 231.40399987 251.06930155 C231.41830149 248.25186255 231.4111703 245.43489193 231.40405273 242.61743164 C231.40975514 240.59689455 231.4167189 238.57636068 231.42485046 236.55583191 C231.44281114 231.06825047 231.44160801 225.58082869 231.43590808 220.09322667 C231.43282047 215.51306962 231.43890391 210.93294343 231.44494683 206.35279077 C231.45899998 195.54840023 231.45742414 184.74408874 231.44604492 173.93969727 C231.43456234 162.79075484 231.44864003 151.64205292 231.4754414 140.49314219 C231.49758733 130.92273356 231.50423828 121.35240049 231.49836498 111.78196806 C231.49499164 106.06522485 231.49743565 100.34863582 231.51461601 94.63191414 C231.53006538 89.25644463 231.52615174 83.88133185 231.50731087 78.50587654 C231.50361946 76.53301055 231.50674948 74.56011824 231.51719666 72.58727646 C231.53037044 69.89391753 231.51889131 67.20174583 231.50120544 64.50843811 C231.51081045 63.72779041 231.52041546 62.94714271 231.53031152 62.14283901 C231.46011475 56.94695586 230.2752636 54.00713419 227 50 C224.0558634 47.61286222 222.34898522 47.03807111 218.5625 46.625 C214.61740588 47.04027307 212.30690528 47.82044879 209 50 Z " fill="#FC0106" transform="translate(82,168)"/>
<path d="M0 0 C1.83745163 -0.00967334 1.83745163 -0.00967334 3.7120235 -0.0195421 C5.06306801 -0.01660012 6.41411212 -0.01346471 7.76515579 -0.01015663 C9.20688974 -0.01389448 10.64862167 -0.01849654 12.09035039 -0.02388728 C16.04806228 -0.03611619 20.00568963 -0.03585694 23.9634161 -0.03349853 C28.23349369 -0.03309033 32.5035442 -0.04412981 36.77360916 -0.05361366 C45.13820193 -0.07022427 53.50276651 -0.07572325 61.86737439 -0.07683842 C68.66730269 -0.07778891 75.4672217 -0.08189925 82.26714706 -0.08823967 C101.5491812 -0.10585261 120.83119308 -0.11507851 140.11323532 -0.11357872 C141.67237852 -0.11345885 141.67237852 -0.11345885 143.26301956 -0.11333656 C144.30371862 -0.1132548 145.34441768 -0.11317304 146.41665307 -0.1130888 C163.28072188 -0.11227599 180.14470136 -0.13141231 197.00874433 -0.1596133 C214.32755899 -0.18834606 231.64633009 -0.20215336 248.96516919 -0.20042574 C258.68717931 -0.19976196 268.4090958 -0.20524929 278.13108444 -0.22678185 C286.40911746 -0.24499884 294.68701439 -0.24933675 302.96505877 -0.235763 C307.18709016 -0.22923583 311.4088605 -0.22910693 315.630867 -0.2464695 C319.49992803 -0.26221668 323.36852141 -0.25932012 327.23757115 -0.24190123 C328.63325572 -0.23883492 330.02897534 -0.24244987 331.42461857 -0.25362138 C343.21646436 -0.34171856 353.13856173 1.83318709 361.82356644 10.25726891 C375.25311635 26.61147636 369.82356644 44.07621102 369.82356644 66.25726891 C237.16356644 66.25726891 104.50356644 66.25726891 -32.17643356 66.25726891 C-32.17643356 19.91669687 -32.17643356 19.91669687 -24.27018356 10.33539391 C-17.68591044 3.80025715 -9.2668959 0.01236897 0 0 Z " fill="#FB0005" transform="translate(81.17643356323242,75.74273109436035)"/>
<path d="M0 0 C1.27715378 -0.01272446 2.55430756 -0.02544891 3.87016296 -0.03855896 C5.27815433 -0.03237703 6.68614388 -0.02577104 8.09413147 -0.01878357 C9.58266047 -0.02584386 11.07118229 -0.03458935 12.55969238 -0.04489136 C16.59697825 -0.06738361 20.63387206 -0.06444607 24.6711967 -0.05556989 C28.0434995 -0.05045771 31.41572878 -0.05775445 34.78802401 -0.06504196 C42.74461746 -0.08204059 50.70101912 -0.07847573 58.65760803 -0.06175232 C66.86195144 -0.04483098 75.06576279 -0.0606655 83.27004808 -0.0929752 C90.31820736 -0.11967881 97.3662011 -0.12694505 104.41440588 -0.11846012 C108.62214405 -0.11353309 112.82956212 -0.11573409 117.03726006 -0.13624763 C120.99457384 -0.15461708 124.95112296 -0.1486315 128.90839577 -0.12404823 C130.35879002 -0.11904421 131.80924266 -0.12251966 133.25959015 -0.13519669 C145.57182239 -0.23428157 145.57182239 -0.23428157 149.45327759 2.74160767 C159.82682725 15.7268542 153.66859436 33.74951158 153.66859436 49.5146637 C98.22859436 49.5146637 42.78859436 49.5146637 -14.33140564 49.5146637 C-14.33140564 7.58148452 -14.33140564 7.58148452 -9.03961849 2.17183018 C-5.7668764 0.16922595 -3.82036527 0.00967386 0 0 Z " fill="#FC0005" transform="translate(180.33140563964844,-0.5146636962890625)"/>
<path d="M0 0 C7.06862834 2.28690917 11.09685956 6.6476629 14.921875 12.7421875 C22.17667039 27.93520104 18 46.0235766 18 62 C-114.66 62 -247.32 62 -384 62 C-384 16.01973684 -384 16.01973684 -377.5 7.9375 C-376.61828125 6.80634766 -376.61828125 6.80634766 -375.71875 5.65234375 C-374 4 -374 4 -371 4 C-371.58007812 4.61875 -371.58007812 4.61875 -372.171875 5.25 C-372.69265625 5.8275 -373.2134375 6.405 -373.75 7 C-374.26046875 7.556875 -374.7709375 8.11375 -375.296875 8.6875 C-387.11255985 24.73081521 -381.42545674 36.44372639 -382 60 C-250.66 60 -119.32 60 16 60 C16.71827738 41.69438217 16.71827738 41.69438217 14 24 C13.96045766 21.66700175 13.95598268 19.33291811 14 17 C12.68 16.67 11.36 16.34 10 16 C10.09152344 15.26007813 10.18304688 14.52015625 10.27734375 13.7578125 C10.26226531 10.86484599 10.26226531 10.86484599 8.06640625 8.8671875 C7.24011719 8.20976563 6.41382813 7.55234375 5.5625 6.875 C1.09337135 3.28011404 1.09337135 3.28011404 0 0 Z " fill="#F09B9C" transform="translate(433,80)"/>
<path d="M0 0 C110.88 0 221.76 0 336 0 C334.85031919 35.64010498 334.85031919 35.64010498 333.60131836 51.86889648 C333.46268554 53.73547311 333.32462923 55.60209262 333.18708801 57.46875 C332.82102212 62.41554793 332.44715644 67.36172542 332.07159877 72.30781054 C331.6771402 77.52167087 331.29025726 82.73609391 330.90248108 87.95045471 C330.17107031 97.77066501 329.43310427 107.59037055 328.69262463 117.40990072 C327.8482235 128.61195213 327.01137097 139.81456373 326.17506969 151.01722229 C324.45828929 174.01210263 322.73229817 197.00628382 321 220 C320.67 220 320.34 220 320 220 C319.88314692 209.71692853 320.02522964 199.46374932 320.4375 189.1875 C320.47673584 188.15625 320.51597168 187.125 320.55639648 186.0625 C320.59837158 185.08667969 320.64034668 184.11085938 320.68359375 183.10546875 C320.72025146 182.24074951 320.75690918 181.37603027 320.79467773 180.48510742 C321 178 321 178 321.4780426 175.74415588 C322.0584821 172.69253429 322.32470948 169.70627197 322.55664062 166.60839844 C322.65344116 165.33647644 322.7502417 164.06455444 322.84997559 162.75408936 C322.95208356 161.37251912 323.05417461 159.99094764 323.15625 158.609375 C323.26421283 157.18074206 323.37249437 155.75213317 323.4810791 154.32354736 C323.76605029 150.56580528 324.04761654 146.80781668 324.32818604 143.04974365 C324.77643347 137.04991593 325.22874321 131.050397 325.68315125 125.05103302 C325.84026863 122.96802965 325.99526007 120.88487611 326.15002441 118.80169678 C326.59867593 112.84814909 327.09033529 106.91618891 327.78674316 100.98660278 C328.1498898 97.60369542 328.32490872 94.21340091 328.5 90.81640625 C328.54060547 90.07599594 328.58121094 89.33558563 328.62304688 88.57273865 C328.75108193 86.23611425 328.87592441 83.89933776 329 81.5625 C329.92048481 64.26565559 329.92048481 64.26565559 330.78125 56.37670898 C331.32573282 50.46092742 331.40859211 44.50577848 331.60546875 38.5703125 C331.64285156 37.55195313 331.68023437 36.53359375 331.71875 35.484375 C331.74904297 34.57397461 331.77933594 33.66357422 331.81054688 32.72558594 C332.01409482 29.79722343 332.51741858 26.89548854 333 24 C333.33 16.74 333.66 9.48 334 2 C224.11 2 114.22 2 1 2 C1 4.97 1 7.94 1 11 C0.67 11 0.34 11 0 11 C0 7.37 0 3.74 0 0 Z " fill="#E18485" transform="translate(82,168)"/>
<path d="M0 0 C0.33 0 0.66 0 1 0 C1.04487549 0.83096191 1.08975098 1.66192383 1.13598633 2.51806641 C2.04119946 19.06441562 3.04658469 35.60189685 4.30966187 52.12518311 C4.43573491 53.78097066 4.55948421 55.43693693 4.68081665 57.09307861 C4.85300567 59.42984942 5.0345471 61.76571163 5.21875 64.1015625 C5.2677092 64.7836377 5.3166684 65.46571289 5.36711121 66.16845703 C5.64947199 69.60619762 6.15948282 72.85809196 7.02734375 76.1875 C7.80930639 79.2525423 8.26642975 81.7703 8.34375 84.8984375 C8.37210938 85.77757812 8.40046875 86.65671875 8.4296875 87.5625 C8.45289062 88.490625 8.47609375 89.41875 8.5 90.375 C8.8034689 99.26897316 9.31043033 108.127453 10 117 C10.08314453 118.09103027 10.16628906 119.18206055 10.25195312 120.30615234 C10.57866983 124.43062912 10.92797424 128.51117811 11.53125 132.60546875 C12.28514809 138.06494745 12.39396153 143.55353623 12.60546875 149.05664062 C12.64285156 149.92095703 12.68023437 150.78527344 12.71875 151.67578125 C12.74904297 152.45864502 12.77933594 153.24150879 12.81054688 154.0480957 C12.88983314 156.07859475 12.88983314 156.07859475 14 158 C14.13245395 159.63558927 14.20555165 161.27614912 14.24951172 162.91650391 C14.2799054 163.94988388 14.31029907 164.98326385 14.34161377 166.04795837 C14.3706781 167.17939774 14.39974243 168.3108371 14.4296875 169.4765625 C14.5017207 171.90780796 14.57416625 174.33904124 14.64697266 176.77026367 C14.68397278 178.05242767 14.7209729 179.33459167 14.75909424 180.65560913 C15.32005143 199.86654683 16.0196545 219.03055172 17.625 238.1875 C18.76698513 251.82536219 19.39850805 265.30313065 19 279 C18.67 279 18.34 279 18 279 C15.69882243 246.34593049 13.404831 213.69136603 11.12071913 181.03609858 C10.85038907 177.1713602 10.57999843 173.30662606 10.30957031 169.44189453 C10.22882371 168.28791001 10.22882371 168.28791001 10.14644587 167.11061266 C9.27734266 154.69195258 8.40334469 142.27364168 7.52750266 129.85545525 C6.62735642 117.09109891 5.7325517 104.32637602 4.84259319 91.56130528 C4.29431026 83.69941728 3.74197831 75.83783611 3.18428206 67.97661015 C2.75540537 61.92485135 2.33400028 55.87259467 1.91522598 49.82012749 C1.7435039 47.35469464 1.56944978 44.88942282 1.39275742 42.4243412 C0.37865922 28.25488484 -0.23856853 14.20696898 0 0 Z " fill="#F38E90" transform="translate(83,184)"/>
<path d="M0 0 C2.375 0.1875 2.375 0.1875 5 1 C7.44273153 5.2937359 7.27826958 9.70699915 7.24723816 14.50880432 C7.24965257 15.36371663 7.25206699 16.21862893 7.25455457 17.09944767 C7.26018849 19.962942 7.25153073 22.82621296 7.24291992 25.68969727 C7.24399287 27.74303243 7.24593175 29.79636731 7.24867249 31.84970093 C7.25352158 37.42597175 7.24586447 43.00216259 7.23571944 48.57842374 C7.2269405 54.41018665 7.22869635 60.24194704 7.2290802 66.07371521 C7.22814352 75.86645853 7.21945873 85.65917088 7.20581055 95.4519043 C7.19008063 106.78030348 7.1848126 118.10866874 7.1855461 129.43707806 C7.18615607 140.32777157 7.18105371 151.21845402 7.17275429 162.10914421 C7.16922018 166.74741642 7.16739086 171.38568471 7.16686058 176.02395821 C7.16585734 181.48302963 7.15976217 186.94207249 7.14969444 192.40113449 C7.1467694 194.40709063 7.14554408 196.41305006 7.14612198 198.41900826 C7.14661147 201.15209582 7.14096879 203.88510294 7.13371277 206.61817932 C7.13526137 207.41632555 7.13680997 208.21447178 7.1384055 209.03680426 C7.10868182 215.79293874 7.10868182 215.79293874 6 219 C4.36368108 220.04892238 2.69514137 221.04906703 1 222 C0.34 222.99 -0.32 223.98 -1 225 C-1.99 224.67 -2.98 224.34 -4 224 C-3.67 223.67 -3.34 223.34 -3 223 C-3.65226562 223.02320313 -4.30453125 223.04640625 -4.9765625 223.0703125 C-10.08698903 223.17583753 -14.20425033 223.01926302 -19 221 C-18.505 219.02 -18.505 219.02 -18 217 C-17.175 217.66 -16.35 218.32 -15.5 219 C-11.73770762 221.48453271 -8.40014372 221.87652265 -4 221 C0.01886623 218.91614344 2.46694065 217.27072951 4 213 C4.19418587 210.21493659 4.2784113 207.53030747 4.26742554 204.74552917 C4.27195665 203.90583865 4.27648776 203.06614812 4.28115618 202.20101243 C4.29383239 199.38289465 4.29217773 196.56496934 4.29052734 193.74682617 C4.29651061 191.72806041 4.30331569 189.70929694 4.31088257 187.6905365 C4.32857102 182.20286286 4.33323917 176.71525157 4.33451414 171.22755218 C4.33641219 166.6475446 4.3437687 162.06755158 4.35085833 157.4875496 C4.36715097 146.68171503 4.37202651 135.8759138 4.37060547 125.07006836 C4.36940403 113.92174461 4.3905044 102.77361445 4.4220928 91.62533969 C4.44824209 82.05579281 4.45897332 72.48630922 4.45769465 62.91672689 C4.45718459 57.20048523 4.46289211 51.48441555 4.48405075 45.76820946 C4.50341014 40.39112398 4.50357319 35.01437492 4.48901749 29.6372776 C4.48692539 27.6648268 4.49165407 25.69235508 4.5037384 23.71994019 C4.51918032 21.02470524 4.50988983 18.33063178 4.49447632 15.63542175 C4.50476344 14.85700477 4.51505057 14.07858779 4.52564943 13.27658242 C4.45627898 7.77791153 3.04645084 4.57995431 0 0 Z " fill="#FA9B9C" transform="translate(308,217)"/>
<path d="M0 0 C1.98 0.495 1.98 0.495 4 1 C4 1.99 4 2.98 4 4 C4.66 4.33 5.32 4.66 6 5 C6 75.29 6 145.58 6 218 C5.01 218 4.02 218 3 218 C2.01 218.99 2.01 218.99 1 220 C0.34 219.34 -0.32 218.68 -1 218 C-0.525625 217.278125 -0.05125 216.55625 0.4375 215.8125 C3.26560288 210.72191481 3.14704677 205.65869194 3.14044189 199.94917297 C3.14341302 199.14341314 3.14638414 198.33765331 3.1494453 197.50747651 C3.15811021 194.81006818 3.15963868 192.11270434 3.16113281 189.4152832 C3.16576258 187.4800558 3.17078745 185.54482931 3.17617798 183.60960388 C3.18928939 178.35319816 3.19574458 173.0968052 3.20018864 167.84038568 C3.20312161 164.55457593 3.20722687 161.26876965 3.21169281 157.98296165 C3.22536491 147.69721566 3.23503277 137.41147763 3.2388947 127.12572318 C3.24337379 115.26218677 3.260916 103.39876567 3.2898953 91.53526431 C3.3115307 82.35885995 3.32159999 73.18248799 3.32293582 64.00605839 C3.32398258 58.52841614 3.32986301 53.05088233 3.34775543 47.57326698 C3.36426802 42.41781906 3.36637611 37.26256071 3.35761642 32.10709572 C3.35684774 30.21975699 3.36116646 28.33240794 3.37107468 26.44509506 C3.54318886 12.940703 3.54318886 12.940703 0 0 Z " fill="#EA6D6D" transform="translate(209,218)"/>
<path d="M0 0 C1.45017732 -0.00318131 2.90035166 -0.00811358 4.35051781 -0.01463282 C8.31282973 -0.02739475 12.27472956 -0.01537502 16.23701417 0.00089574 C20.51847548 0.0141005 24.79989262 0.00414201 29.08135986 -0.00286865 C37.4578158 -0.01293154 45.83411334 -0.00169744 54.21054959 0.01683195 C63.96346998 0.03762928 73.71635639 0.03745885 83.46929479 0.03648679 C100.86490365 0.03548645 118.26043884 0.05378744 135.65602112 0.08285522 C152.54307903 0.1110587 169.43007215 0.1251954 186.31715393 0.12387085 C187.35827894 0.12379094 188.39940395 0.12371102 189.4720782 0.12362869 C190.51139194 0.12354798 191.55070568 0.12346727 192.62151378 0.12338412 C211.84527258 0.12200563 231.06900381 0.13377369 250.29275368 0.15169055 C257.09522939 0.15772896 263.89770005 0.15985031 270.70017815 0.16075516 C278.98158866 0.16211732 287.26295269 0.17101791 295.54434346 0.18942077 C299.77153209 0.19867283 303.99866115 0.20474181 308.2258606 0.20223236 C312.09120517 0.2000489 315.95641776 0.20703817 319.82173479 0.22152941 C321.22389789 0.22516797 322.62607456 0.22540514 324.02823823 0.22199483 C325.92649402 0.21788729 327.82476495 0.22716512 329.72299862 0.23720741 C331.30798417 0.23932069 331.30798417 0.23932069 332.92498964 0.24147666 C335.5302887 0.49447632 335.5302887 0.49447632 338.5302887 2.49447632 C337.78812542 2.49333716 337.04596214 2.492198 336.28130907 2.49102432 C292.30741346 2.42390909 248.33352341 2.37242625 204.35958686 2.34128033 C199.08111955 2.33752815 193.80265234 2.33364519 188.52418518 2.3296814 C187.47332495 2.32889447 186.42246473 2.32810753 185.33976025 2.32729676 C168.31810893 2.3142382 151.29648796 2.29058187 134.27485465 2.26301793 C116.81274112 2.23497626 99.3506435 2.21830268 81.88850838 2.21221083 C71.11100445 2.20809183 60.33358631 2.19507612 49.55610878 2.17072692 C42.1684069 2.15488502 34.78074946 2.15007246 27.39303183 2.15397219 C23.12891968 2.15589614 18.8649576 2.15291974 14.60087204 2.13685989 C10.6966504 2.12226268 6.79267977 2.12152273 2.88844658 2.13177963 C1.47648245 2.13304735 0.06450267 2.12924019 -1.34743065 2.11982677 C-11.34543043 1.95527728 -11.34543043 1.95527728 -20.4697113 5.49447632 C-20.7997113 6.15447632 -21.1297113 6.81447632 -21.4697113 7.49447632 C-23.4497113 7.49447632 -25.4297113 7.49447632 -27.4697113 7.49447632 C-20.35145186 -0.39151802 -9.8500136 -0.07872411 0 0 Z " fill="#EF5756" transform="translate(89.46971130371094,75.50552368164063)"/>
<path d="M0 0 C0.33 0 0.66 0 1 0 C1.22100875 10.67307231 0.52449117 21.19131182 -0.28515625 31.82543945 C-0.42349746 33.68937173 -0.56141483 35.55333551 -0.69894409 37.41732788 C-1.07067879 42.43945182 -1.44828652 47.46111837 -1.82700729 52.48271966 C-2.22284316 57.74482974 -2.61319711 63.00734649 -3.00415039 68.26982117 C-3.74403839 78.21802333 -4.48880511 88.16585389 -5.23535633 98.11355799 C-6.08557914 109.44588775 -6.93031513 120.77862444 -7.7746067 132.11139739 C-9.51033035 155.40805384 -11.25289101 178.7041948 -13 202 C-13.33 202 -13.66 202 -14 202 C-14.11685308 191.71692853 -13.97477036 181.46374932 -13.5625 171.1875 C-13.52326416 170.15625 -13.48402832 169.125 -13.44360352 168.0625 C-13.40162842 167.08667969 -13.35965332 166.11085938 -13.31640625 165.10546875 C-13.27974854 164.24074951 -13.24309082 163.37603027 -13.20532227 162.48510742 C-13 160 -13 160 -12.5219574 157.74415588 C-11.9415179 154.69253429 -11.67529052 151.70627197 -11.44335938 148.60839844 C-11.34655884 147.33647644 -11.2497583 146.06455444 -11.15002441 144.75408936 C-11.04791644 143.37251912 -10.94582539 141.99094764 -10.84375 140.609375 C-10.73578717 139.18074206 -10.62750563 137.75213317 -10.5189209 136.32354736 C-10.23394971 132.56580528 -9.95238346 128.80781668 -9.67181396 125.04974365 C-9.22356653 119.04991593 -8.77125679 113.050397 -8.31684875 107.05103302 C-8.15973137 104.96802965 -8.00473993 102.88487611 -7.84997559 100.80169678 C-7.40132407 94.84814909 -6.90966471 88.91618891 -6.21325684 82.98660278 C-5.8501102 79.60369542 -5.67509128 76.21340091 -5.5 72.81640625 C-5.45939453 72.07599594 -5.41878906 71.33558563 -5.37695312 70.57273865 C-5.24891807 68.23611425 -5.12407559 65.89933776 -5 63.5625 C-4.08040504 46.28237668 -4.08040504 46.28237668 -3.21435547 38.3503418 C-2.78301119 33.62078447 -2.71012812 28.87024348 -2.5625 24.125 C-2.27177035 15.93182395 -1.81130828 8.01899588 0 0 Z " fill="#FAABAC" transform="translate(416,186)"/>
<path d="M0 0 C3.92331434 0.22418939 4.96128088 0.95952092 7.75 3.875 C17.1699196 16.95822166 11 31.0948606 11 49 C-44.44 49 -99.88 49 -157 49 C-157 36.13 -157 23.26 -157 10 C-156.67 10 -156.34 10 -156 10 C-156 22.54 -156 35.08 -156 48 C-101.22 48 -46.44 48 10 48 C9.67 36.45 9.34 24.9 9 13 C8.67 13 8.34 13 8 13 C7.566875 11.5459375 7.566875 11.5459375 7.125 10.0625 C6.35785318 6.89335797 6.35785318 6.89335797 4 6 C4 4.68 4 3.36 4 2 C2.02 1.01 2.02 1.01 0 0 Z " fill="#FEB7BA" transform="translate(323,0)"/>
<path d="M0 0 C3 2.5 3 2.5 5 5 C4.154375 4.67 3.30875 4.34 2.4375 4 C-2.86676401 2.45694138 -6.38437431 2.1159784 -11.3125 4.8125 C-15.08846249 7.88595784 -16.3586637 10.28223357 -17 15 C-17.0921077 17.69932646 -17.13499944 20.37214912 -17.12698364 23.0710144 C-17.12854363 23.87889094 -17.13010362 24.68676747 -17.13171089 25.5191251 C-17.13569636 28.22354342 -17.1325407 30.9279055 -17.12939453 33.63232422 C-17.13074968 35.57241855 -17.13253025 37.51251262 -17.13470459 39.4526062 C-17.139266 44.72121355 -17.13749449 49.98980133 -17.1343255 55.25840902 C-17.13179453 60.77246243 -17.13414157 66.28651416 -17.13571167 71.80056763 C-17.13753151 81.06284893 -17.13513223 90.32512225 -17.13037109 99.58740234 C-17.12493204 110.29203553 -17.12668929 120.99664966 -17.1321975 131.70128238 C-17.13673773 140.89292561 -17.13737461 150.0845631 -17.13475883 159.27620709 C-17.13320066 164.76544896 -17.13298965 170.25468189 -17.13629532 175.74392319 C-17.13918711 180.90670029 -17.13717424 186.06945287 -17.13140106 191.23222733 C-17.13008035 193.12565826 -17.13045588 195.01909126 -17.13266373 196.91252136 C-17.13540239 199.50004807 -17.13196086 202.08749656 -17.12698364 204.67501831 C-17.12921436 205.42162558 -17.13144509 206.16823286 -17.13374341 206.93746459 C-17.11712256 211.4026211 -16.7252403 215.60831034 -16 220 C-17.47661114 219.00322247 -17.47661114 219.00322247 -19 217 C-19.29265513 214.24101521 -19.40032697 211.70809727 -19.3742218 208.94844055 C-19.38018341 207.70349541 -19.38018341 207.70349541 -19.38626546 206.43339986 C-19.39591808 203.64203238 -19.3840523 200.85116801 -19.37231445 198.05981445 C-19.37474153 196.0625235 -19.37846004 194.06523376 -19.38337708 192.06794739 C-19.3928042 186.63381236 -19.38334369 181.1998569 -19.37004495 175.76573586 C-19.35874494 170.08130627 -19.36283704 164.39688571 -19.36479187 158.71244812 C-19.36567566 149.15991274 -19.3545796 139.6074482 -19.33618164 130.05493164 C-19.31504299 119.0163314 -19.31149722 107.9778352 -19.3177436 96.93921882 C-19.32344379 86.32190918 -19.31778191 75.70463613 -19.30657005 65.08733177 C-19.30192966 60.56958526 -19.30104785 56.05186117 -19.3031559 51.53411293 C-19.30504313 46.20799071 -19.29690137 40.88197396 -19.2810955 35.55587578 C-19.27686138 33.60320599 -19.27599623 31.65052548 -19.27878571 29.69785309 C-19.28202119 27.02727979 -19.27289112 24.35701886 -19.26069641 21.68647766 C-19.26447573 20.9180733 -19.26825506 20.14966894 -19.27214891 19.3579796 C-19.23126357 14.27768901 -18.39141165 9.88991644 -17 5 C-16.01 5 -15.02 5 -14 5 C-14 4.01 -14 3.02 -14 2 C-9.03048293 0.01219317 -5.27662529 -0.5862917 0 0 Z " fill="#FE6C6E" transform="translate(204,213)"/>
<path d="M0 0 C-0.928125 0.33 -1.85625 0.66 -2.8125 1 C-6.9860067 3.16960943 -6.9860067 3.16960943 -9 11 C-9.33 22.55 -9.66 34.1 -10 46 C44.12 46 98.24 46 154 46 C154 34.12 154 22.24 154 10 C154.33 10 154.66 10 155 10 C155 22.21 155 34.42 155 47 C100.22 47 45.44 47 -11 47 C-11 6 -11 6 -6 0 C-3.50907189 -1.24546405 -2.58919267 -0.7767578 0 0 Z " fill="#D61B20" transform="translate(178,1)"/>
<path d="M0 0 C-0.32490071 0.65185493 -0.64980143 1.30370985 -0.98454762 1.97531796 C-2.27324975 5.81391664 -2.27347374 9.39475484 -2.24723816 13.39491272 C-2.24965257 14.23757437 -2.25206699 15.08023601 -2.25455457 15.94843286 C-2.26018782 18.77046976 -2.25153125 21.59227993 -2.24291992 24.41430664 C-2.24399289 26.43808554 -2.24593179 28.46186415 -2.24867249 30.48564148 C-2.2535213 35.9813368 -2.24586481 41.47695096 -2.23571944 46.97263646 C-2.22694006 52.72031771 -2.22869636 58.4679964 -2.2290802 64.21568298 C-2.22814354 73.86719115 -2.21945902 83.51866789 -2.20581055 93.17016602 C-2.19008058 104.33497059 -2.1848126 115.49974075 -2.1855461 126.66455561 C-2.18615609 137.39827202 -2.18105362 148.1319772 -2.17275429 158.86569023 C-2.1692203 163.43697637 -2.16739087 168.00825854 -2.16686058 172.57954597 C-2.16585729 177.95982311 -2.15976177 183.34007125 -2.14969444 188.72033882 C-2.14676955 190.69726891 -2.14554405 192.67420233 -2.14612198 194.65113449 C-2.14661152 197.34481095 -2.14096831 200.03840581 -2.13371277 202.73207092 C-2.13526137 203.51854431 -2.13680997 204.30501769 -2.1384055 205.1153236 C-2.12292901 208.58294296 -1.92779649 211.66374207 -1 215 C-1.99 214.67 -2.98 214.34 -4 214 C-4.33 143.71 -4.66 73.42 -5 1 C-2 0 -2 0 0 0 Z " fill="#D41318" transform="translate(289,219)"/>
<path d="M0 0 C0.33 0 0.66 0 1 0 C1.22978546 10.798929 0.5060154 21.44738302 -0.3125 32.20703125 C-0.44743795 34.02688059 -0.58195204 35.84676139 -0.71606445 37.66667175 C-1.0669568 42.41301041 -1.42353366 47.15890477 -1.78137207 51.90472412 C-2.14680323 56.76499933 -2.50675169 61.62568037 -2.8671875 66.48632812 C-3.57281629 75.99128619 -4.28446236 85.49578309 -5 95 C-5.33 95 -5.66 95 -6 95 C-6.13324821 85.14160616 -5.79426748 75.37621184 -5.20043945 65.53955078 C-5.06182874 63.23885833 -4.92986836 60.93785362 -4.79882812 58.63671875 C-4.09697393 46.54842537 -4.09697393 46.54842537 -3.4609375 40.6640625 C-2.86642819 35.16120499 -2.73452312 29.65437743 -2.5625 24.125 C-2.27177035 15.93182395 -1.81130828 8.01899588 0 0 Z " fill="#FCC7C5" transform="translate(416,186)"/>
<path d="M0 0 C7.91820472 2.56177212 12.25660833 7.87115053 16 15 C16.91861784 17.75585352 17.12204322 19.3596069 17.11352539 22.19604492 C17.11344986 23.03668991 17.11337433 23.8773349 17.11329651 24.74345398 C17.10813522 25.64666885 17.10297394 26.54988373 17.09765625 27.48046875 C17.0962413 28.40845779 17.09482635 29.33644684 17.09336853 30.29255676 C17.08776937 33.25757058 17.07521704 36.22250899 17.0625 39.1875 C17.05748489 41.19726453 17.052922 43.20703025 17.04882812 45.21679688 C17.03780021 50.14456032 17.02053617 55.07226737 17 60 C16.67 60 16.34 60 16 60 C15.97494385 59.01604248 15.9498877 58.03208496 15.92407227 57.01831055 C15.8298918 53.36729943 15.7296971 49.71647384 15.62768555 46.06567383 C15.58437695 44.48563985 15.54269894 42.90556031 15.50268555 41.32543945 C15.44488417 39.05405952 15.3812184 36.78290811 15.31640625 34.51171875 C15.29133751 33.45219246 15.29133751 33.45219246 15.26576233 32.3712616 C15.1740253 29.3335176 14.96792314 26.90376942 14 24 C13.96045766 21.66700175 13.95598268 19.33291811 14 17 C12.68 16.67 11.36 16.34 10 16 C10.09152344 15.26007813 10.18304688 14.52015625 10.27734375 13.7578125 C10.26226531 10.86484599 10.26226531 10.86484599 8.06640625 8.8671875 C7.24011719 8.20976563 6.41382813 7.55234375 5.5625 6.875 C1.09337135 3.28011404 1.09337135 3.28011404 0 0 Z " fill="#DF2E32" transform="translate(433,80)"/>
<path d="M0 0 C0.33 0 0.66 0 1 0 C1.46327307 13.83706575 0.0912551 27.5951579 -1 41.375 C-1.19319909 43.8645453 -1.38591157 46.35412841 -1.578125 48.84375 C-2.04647041 54.89628099 -2.52083416 60.94831653 -3 67 C-3.33 67 -3.66 67 -4 67 C-4.15165352 55.00492896 -3.75407336 43.04618573 -3.25537109 31.0625 C-3.12383972 27.84663182 -3.00524742 24.63043298 -2.88671875 21.4140625 C-2.8028757 19.35673839 -2.71826843 17.29944525 -2.6328125 15.2421875 C-2.59938751 14.28698212 -2.56596252 13.33177673 -2.53152466 12.34762573 C-2.33027315 7.84647128 -2.11023841 4.08637423 0 0 Z " fill="#F28082" transform="translate(401,388)"/>
<path d="M0 0 C3.92331434 0.22418939 4.96128088 0.95952092 7.75 3.875 C11.3169169 8.82905125 11.13391111 12.94063832 11.09765625 18.82421875 C11.0962413 19.68561966 11.09482635 20.54702057 11.09336853 21.43452454 C11.0877714 24.18555169 11.07521946 26.93649744 11.0625 29.6875 C11.05748463 31.5527332 11.05292179 33.41796767 11.04882812 35.28320312 C11.03780292 39.85550011 11.02054027 44.42773625 11 49 C10.67 49 10.34 49 10 49 C9.67 37.12 9.34 25.24 9 13 C8.67 13 8.34 13 8 13 C7.71125 12.030625 7.4225 11.06125 7.125 10.0625 C6.35785318 6.89335797 6.35785318 6.89335797 4 6 C4 4.68 4 3.36 4 2 C2.68 1.34 1.36 0.68 0 0 Z " fill="#FEBDC0" transform="translate(323,0)"/>
<path d="M0 0 C0.97079451 3.0202496 1.32756618 5.06038917 0 8 C-1.63631892 9.04892238 -3.30485863 10.04906703 -5 11 C-5.99 12.485 -5.99 12.485 -7 14 C-7.99 13.67 -8.98 13.34 -10 13 C-9.67 12.67 -9.34 12.34 -9 12 C-9.97839844 12.03480469 -9.97839844 12.03480469 -10.9765625 12.0703125 C-16.08698903 12.17583753 -20.20425033 12.01926302 -25 10 C-24.67 8.68 -24.34 7.36 -24 6 C-22.7625 6.99 -22.7625 6.99 -21.5 8 C-17.73770762 10.48453271 -14.40014372 10.87652265 -10 10 C-6.06377171 7.95899274 -3.51790741 6.25014075 -2 2 C-1.34 2 -0.68 2 0 2 C0 1.34 0 0.68 0 0 Z " fill="#F16065" transform="translate(314,428)"/>
<path d="M0 0 C0.33 0 0.66 0 1 0 C1.14109129 9.32280281 0.72274221 18.51940252 0 27.8125 C-0.09539062 29.08931641 -0.19078125 30.36613281 -0.2890625 31.68164062 C-0.52175689 34.78811078 -0.75879625 37.89418101 -1 41 C-1.33 41 -1.66 41 -2 41 C-2.050211 37.08972165 -2.08609395 33.17957344 -2.10986328 29.26904297 C-2.12462224 27.30038843 -2.15006161 25.3318231 -2.17578125 23.36328125 C-2.21640861 15.35969111 -1.62574252 7.84095434 0 0 Z " fill="#FEDBDE" transform="translate(416,186)"/>
<path d="M0 0 C0.33 0 0.66 0 1 0 C1.01981934 0.61520508 1.03963867 1.23041016 1.06005859 1.86425781 C1.15549727 4.65992542 1.26509955 7.4548651 1.375 10.25 C1.42140625 11.70212891 1.42140625 11.70212891 1.46875 13.18359375 C1.50742188 14.11816406 1.54609375 15.05273438 1.5859375 16.015625 C1.6173584 16.87446289 1.6487793 17.73330078 1.68115234 18.61816406 C2.01976084 21.1476162 2.84974028 22.74752721 4 25 C4.0777346 27.33203812 4.08967728 29.66839059 4 32 C-0.38081304 28.31531615 -0.42649599 23.43525392 -1 18 C-1.54798186 5.04022895 -1.54798186 5.04022895 0 0 Z " fill="#ED6A6D" transform="translate(103,459)"/>
<path d="M0 0 C0.33 0 0.66 0 1 0 C1.27380247 15.45462851 0.52306778 30.61944585 -1 46 C-1.33 46 -1.66 46 -2 46 C-2.02891949 41.70834738 -2.04677118 37.41671964 -2.0625 33.125 C-2.07087891 31.90167969 -2.07925781 30.67835938 -2.08789062 29.41796875 C-2.09111328 28.25136719 -2.09433594 27.08476562 -2.09765625 25.8828125 C-2.10289307 24.80402832 -2.10812988 23.72524414 -2.11352539 22.61376953 C-2 20 -2 20 -1 18 C-0.84995027 16.6265365 -0.75161994 15.2471474 -0.68359375 13.8671875 C-0.64169922 13.06152344 -0.59980469 12.25585938 -0.55664062 11.42578125 C-0.51732422 10.58402344 -0.47800781 9.74226562 -0.4375 8.875 C-0.39431641 8.02550781 -0.35113281 7.17601562 -0.30664062 6.30078125 C-0.20045764 4.20071777 -0.09971503 2.10038052 0 0 Z " fill="#DF1317" transform="translate(413,200)"/>
<path d="M0 0 C7.04615099 2.27963708 11.3471148 6.71861341 15.03125 12.9296875 C16.46080681 15.98478875 16.79041227 18.64659635 17 22 C12 14.5 12 14.5 12 11 C11.41605469 10.73058594 10.83210938 10.46117188 10.23046875 10.18359375 C7.99415374 8.99689769 6.23570747 7.70202394 4.3125 6.0625 C3.71050781 5.55847656 3.10851562 5.05445312 2.48828125 4.53515625 C1 3 1 3 0 0 Z " fill="#F28E8F" transform="translate(433,80)"/>
<path d="M0 0 C-0.928125 0.33 -1.85625 0.66 -2.8125 1 C-6.95495719 3.59918883 -7.89876415 6.42129512 -9 11 C-9.47192173 15.16496325 -9.59981716 19.31126532 -9.6875 23.5 C-9.72166016 24.60859375 -9.75582031 25.7171875 -9.79101562 26.859375 C-9.87288667 29.57281543 -9.94223404 32.28595747 -10 35 C-10.33 35 -10.66 35 -11 35 C-11.12426099 30.98006153 -11.21464411 26.96087721 -11.2746582 22.93945312 C-11.2996928 21.57369497 -11.33373218 20.20806933 -11.37719727 18.84277344 C-11.77476031 6.02721189 -11.77476031 6.02721189 -8.60546875 2.1328125 C-5.14818645 -0.69728665 -4.19523064 -1.25856919 0 0 Z " fill="#DE595E" transform="translate(178,1)"/>
<path d="M0 0 C0.66 0.33 1.32 0.66 2 1 C1.2575 1.70125 0.515 2.4025 -0.25 3.125 C-3.09191836 5.92478751 -3.09191836 5.92478751 -5.1875 9.3125 C-5.785625 10.199375 -6.38375 11.08625 -7 12 C-7.66 12 -8.32 12 -9 12 C-9.12117188 12.71027344 -9.24234375 13.42054687 -9.3671875 14.15234375 C-9.53476562 15.07144531 -9.70234375 15.99054688 -9.875 16.9375 C-10.03742187 17.85402344 -10.19984375 18.77054688 -10.3671875 19.71484375 C-10.68042969 20.84599609 -10.68042969 20.84599609 -11 22 C-11.66 22.33 -12.32 22.66 -13 23 C-12.86879811 14.86548292 -10.24682815 10.15259637 -5 4 C-2.0625 1.375 -2.0625 1.375 0 0 Z " fill="#E3171B" transform="translate(64,82)"/>
<path d="M0 0 C0.99 0 1.98 0 3 0 C2.70876501 5.97031739 -0.02814384 8.894534 -4 13 C-4.66 12.01 -5.32 11.02 -6 10 C-5.01 10 -4.02 10 -3 10 C-3.309375 8.8553125 -3.309375 8.8553125 -3.625 7.6875 C-4 5 -4 5 -2 2 C-1.34 2 -0.68 2 0 2 C0 1.34 0 0.68 0 0 Z " fill="#F05255" transform="translate(392,483)"/>
<path d="M0 0 C3.37191712 5.05787568 4.23926553 7.77909633 4 14 C1.31566952 11.54908957 0.08210259 9.71758616 -0.09765625 5.95703125 C-0.06510417 3.97135417 -0.03255208 1.98567708 0 0 Z " fill="#F17274" transform="translate(103,477)"/>
<path d="M0 0 C0.33 0 0.66 0 1 0 C1.02685938 2.14576637 1.04633088 4.29162645 1.0625 6.4375 C1.07410156 7.63246094 1.08570313 8.82742187 1.09765625 10.05859375 C1 13 1 13 0 14 C-0.23075082 15.34747084 -0.41153063 16.70377565 -0.5625 18.0625 C-0.706875 19.361875 -0.85125 20.66125 -1 22 C-1.33 22 -1.66 22 -2 22 C-2.30071865 14.44862068 -1.42625566 7.41143564 0 0 Z " fill="#EE9598" transform="translate(416,186)"/>
<path d="M0 0 C2.97752446 0.33083605 4.81374721 0.87415352 7.3125 2.5625 C9.78719807 6.13706388 9.28590207 8.71146895 9 13 C8.67 13 8.34 13 8 13 C7.71125 12.030625 7.4225 11.06125 7.125 10.0625 C6.35785318 6.89335797 6.35785318 6.89335797 4 6 C4 4.68 4 3.36 4 2 C2.68 1.34 1.36 0.68 0 0 Z " fill="#EE6E6F" transform="translate(323,0)"/>
<path d="M0 0 C4.6952463 5.60400365 5.11588746 8.93086474 5 16 C2.5705484 12.3558226 2.83820425 10.28758728 3 6 C1.68 5.67 0.36 5.34 -1 5 C-0.67 3.35 -0.34 1.7 0 0 Z " fill="#E5191F" transform="translate(444,91)"/>
<path d="M0 0 C-2.52823753 1.31468352 -5.04077143 2.42336465 -7.6875 3.5 C-11.068459 4.61166533 -11.068459 4.61166533 -12 7 C-13.98 7 -15.96 7 -18 7 C-15.65476784 4.32520907 -13.41711208 3.11833777 -10.125 1.8125 C-9.28195313 1.46832031 -8.43890625 1.12414062 -7.5703125 0.76953125 C-4.90790649 -0.02757207 -2.7621015 -0.14355008 0 0 Z " fill="#EC7070" transform="translate(80,76)"/>
<path d="M0 0 C-2 3 -2 3 -4.1640625 3.51171875 C-4.97617188 3.56972656 -5.78828125 3.62773438 -6.625 3.6875 C-7.85089844 3.78611328 -7.85089844 3.78611328 -9.1015625 3.88671875 C-9.72804687 3.92410156 -10.35453125 3.96148438 -11 4 C-7.39987093 0.15158617 -5.25169925 -1.6298377 0 0 Z " fill="#E70D14" transform="translate(182,1)"/>
<path d="M0 0 C0.33 0 0.66 0 1 0 C1 2.64 1 5.28 1 8 C0.01 8 -0.98 8 -2 8 C-2.66 8.66 -3.32 9.32 -4 10 C-4.66 9.34 -5.32 8.68 -6 8 C-5.38125 7.4225 -4.7625 6.845 -4.125 6.25 C-2.18652947 4.19750179 -1.09985751 2.56633418 0 0 Z " fill="#E71C23" transform="translate(214,428)"/>
<path d="M0 0 C7.26153846 -0.61538462 7.26153846 -0.61538462 11 2.5 C11.66 3.325 12.32 4.15 13 5 C11.7625 4.5359375 11.7625 4.5359375 10.5 4.0625 C6.60873845 2.88122417 3.03833047 2.41775832 -1 2 C-0.67 1.34 -0.34 0.68 0 0 Z " fill="#E4504F" transform="translate(196,213)"/>
<path d="M0 0 C2.375 0.1875 2.375 0.1875 5 1 C6.375 3.375 6.375 3.375 7 6 C6.67 6.99 6.34 7.98 6 9 C6 8.34 6 7.68 6 7 C5.34 7 4.68 7 4 7 C2.02 3.535 2.02 3.535 0 0 Z " fill="#ED4E52" transform="translate(308,217)"/>
<path d="M0 0 C1.98 0 3.96 0 6 0 C5.278125 0.556875 4.55625 1.11375 3.8125 1.6875 C1.02542701 3.97909334 -1.48641528 6.41459857 -4 9 C-3.67 7.02 -3.34 5.04 -3 3 C-2.01 3 -1.02 3 0 3 C0 2.01 0 1.02 0 0 Z " fill="#EE6265" transform="translate(190,215)"/>
<path d="M0 0 C-4.48074195 3.36055646 -7.60550707 3.27429625 -13 3 C-11.68 2.67 -10.36 2.34 -9 2 C-9 1.34 -9 0.68 -9 0 C-2.25 -1.125 -2.25 -1.125 0 0 Z " fill="#F17473" transform="translate(387,497)"/>
<path d="M0 0 C3.63 0 7.26 0 11 0 C11.33 0.66 11.66 1.32 12 2 C7.47907032 3.45606519 4.48351204 2.27032841 0 1 C0 0.67 0 0.34 0 0 Z " fill="#EC4E53" transform="translate(298,214)"/>
</svg>
