<?xml version="1.0" encoding="UTF-8"?>
<svg version="1.1" xmlns="http://www.w3.org/2000/svg" width="500" height="500">
<path d="M0 0 C4.6357899 0.01656723 9.27154619 0.00755033 13.9073534 0.00248075 C21.67370798 -0.00201484 29.43981966 0.01368447 37.20612049 0.04177213 C46.17184363 0.07394842 55.13713239 0.0737477 64.10288692 0.05655736 C72.76500068 0.04068538 81.42695586 0.0474214 90.08906269 0.06449437 C93.76197273 0.07134771 97.43475499 0.07035059 101.10766315 0.06294942 C105.4254105 0.05527654 109.74266348 0.06744494 114.06032658 0.09479833 C115.64091875 0.10166761 117.22155723 0.10179576 118.80214787 0.0945828 C133.62686972 0.03473323 133.62686972 0.03473323 139.37994862 4.63869596 C142.97834906 8.42162976 143.62561567 11.26025831 143.69244862 16.32619596 C143.6103584 19.44994474 143.374028 21.65645781 142.37994862 24.63869596 C141.71994862 24.63869596 141.05994862 24.63869596 140.37994862 24.63869596 C140.17369862 25.21619596 139.96744862 25.79369596 139.75494862 26.38869596 C137.81935114 29.55603728 135.59477365 30.81258283 132.37994862 32.63869596 C129.20763683 33.14091802 129.20763683 33.14091802 125.74088001 33.14421964 C125.09901898 33.15030976 124.45715795 33.15639988 123.79584658 33.16267455 C121.65862883 33.17821153 119.52254204 33.16551273 117.38531971 33.15285611 C115.84726733 33.15832006 114.3092204 33.16556332 112.77118397 33.1744473 C109.46449365 33.18976671 106.15811354 33.19259357 102.85139561 33.18568158 C97.61352704 33.17487197 92.37598076 33.19230692 87.13815784 33.21349454 C78.84405242 33.24374705 70.55004269 33.2554477 62.25588667 33.25907099 C47.42793998 33.26571195 32.60006093 33.29492337 17.77219546 33.34416735 C12.57544568 33.36058043 7.37883506 33.36609839 2.18206191 33.36257696 C-1.06567818 33.36213681 -4.31336673 33.36975082 -7.56109142 33.37925267 C-9.05573218 33.38191288 -10.55038369 33.38122268 -12.0450201 33.3767426 C-29.7710285 33.32732885 -44.21496944 35.47198756 -57.42864513 48.24025846 C-70.07752165 62.08412687 -69.06108236 80.20075967 -68.99236584 97.82131314 C-68.9947985 100.0224003 -68.9985224 102.22348634 -69.00342846 104.42456937 C-69.01277386 110.36024072 -69.00346689 116.29574534 -68.99009633 122.23140359 C-68.97871782 128.46289119 -68.98289412 134.69437135 -68.98484325 140.92586637 C-68.98572395 151.38274076 -68.97476252 161.83955416 -68.95623302 172.2964108 C-68.93721531 183.03178233 -68.93015171 193.76707831 -68.93572521 204.50246549 C-68.9424435 217.48105045 -68.93912027 230.4595917 -68.92662144 243.43817258 C-68.9219899 248.38047523 -68.9210953 253.32275739 -68.92320728 258.26506162 C-68.92509685 264.08627628 -68.91693496 269.90739467 -68.90114689 275.72858739 C-68.89692075 277.85900148 -68.89604218 279.98942537 -68.89883709 282.11984181 C-68.91883119 300.09220131 -68.61725627 316.79095823 -55.62005138 330.63869596 C-41.39668022 343.91581373 -22.15310226 342.93558806 -3.97747326 342.89748502 C-1.79815587 342.9001988 0.3811606 342.90376189 2.56047535 342.90810513 C8.45090156 342.91718535 14.34125732 342.91370294 20.23168468 342.90734696 C26.41200791 342.90226431 32.59232533 342.9069847 38.77264881 342.9101193 C49.14908392 342.91375234 59.5254905 342.90897719 69.90192127 342.89943814 C81.87846344 342.88855488 93.85490464 342.89208092 105.83144712 342.90309095 C116.13583122 342.91218267 126.44019488 342.91343989 136.7445817 342.90821362 C142.88949257 342.90510428 149.03437149 342.90465602 155.17928028 342.91128659 C160.9577708 342.91708686 166.73617397 342.91301424 172.51465511 342.90149808 C174.62852363 342.8988658 176.74239956 342.89959194 178.85626507 342.90402341 C203.52434249 343.13743476 203.52434249 343.13743476 225.36432362 332.72463346 C236.0309069 321.68596006 240.49421603 308.17354974 240.5112505 292.99758267 C240.51525867 291.70229642 240.51926685 290.40701016 240.52339649 289.07247281 C240.52292152 287.654443 240.52238543 286.23641322 240.52179432 284.81838346 C240.52482939 283.31148545 240.52835181 281.80458836 240.53232288 280.29769254 C240.54018388 277.0625841 240.54534612 273.82748654 240.54861355 270.59237027 C240.55454546 265.47350084 240.57110502 260.35470013 240.58995533 255.23586392 C240.59629179 253.48052339 240.60261743 251.72518281 240.6089325 249.9698422 C240.61209831 249.09108804 240.61526412 248.21233388 240.61852586 247.30695081 C240.66054689 235.39736215 240.69359174 223.48780701 240.70587635 211.57814908 C240.71425953 203.53324616 240.73675457 195.4885151 240.77523202 187.44369817 C240.794974 183.19073664 240.8074032 178.93803191 240.80239773 174.68502164 C240.79774769 170.68589202 240.81157562 166.68724975 240.83940983 162.68821836 C240.84631402 161.22374183 240.84645643 159.75921483 240.83920956 158.29473996 C240.77784031 144.49619334 240.77784031 144.49619334 245.37994862 138.63869596 C249.61038306 134.98513894 253.7865394 133.38683513 259.37994862 133.63869596 C265.6051704 134.83541142 268.79438335 137.53198178 272.37994862 142.63869596 C273.79513319 145.4690651 273.51902447 147.84891444 273.53384876 151.01538968 C273.53823102 151.67747892 273.54261327 152.33956816 273.54712832 153.02172071 C273.56053489 155.25138911 273.56669972 157.48101796 273.57281971 159.71071744 C273.58072024 161.30578152 273.58898916 162.90084381 273.59759998 164.49590421 C273.62386124 169.75051527 273.63914779 175.00513437 273.65338612 180.25978971 C273.65874716 182.07274307 273.66412467 183.88569638 273.66951847 185.69864964 C273.69116754 193.25193045 273.70989558 200.80520911 273.72114086 208.35851312 C273.73731652 219.15117529 273.77031433 229.94347372 273.82754171 240.73599881 C273.86645886 248.33797155 273.88580004 255.93984799 273.89106143 263.54191762 C273.89468989 268.07265326 273.90643768 272.60300137 273.93916416 277.13362813 C274.15289568 308.24276226 271.75172615 332.70201644 249.12604237 355.95510221 C234.72252086 369.5097974 215.93796211 376.97380936 196.25603199 376.90612149 C195.2754951 376.91065261 194.29495821 376.91518372 193.28470808 376.91985214 C190.01944979 376.93244934 186.75435929 376.93087877 183.48907948 376.9292233 C181.13935604 376.93521158 178.78963456 376.94201782 176.43991566 376.94957852 C170.06973219 376.967218 163.69960249 376.97193313 157.32939696 376.9732101 C152.67427438 376.97487297 148.01916367 376.98067706 143.36404528 376.98688305 C130.83163924 377.00347957 118.29926155 377.01096942 105.76684492 377.00954358 C105.05627119 377.00946367 104.34569746 377.00938376 103.61359119 377.00930142 C102.90213951 377.00921966 102.19068784 377.0091379 101.45767701 377.00905366 C89.94241849 377.00824175 78.42729108 377.02735854 66.91207045 377.05557816 C55.06012891 377.08439132 43.20825112 377.09811374 31.35627371 377.0963906 C24.71372209 377.09572946 18.07128862 377.10149499 11.42875957 377.12274671 C5.17500669 377.14220862 -1.07845756 377.14219916 -7.33222103 377.12771344 C-9.61695627 377.12563391 -11.90170994 377.13027468 -14.18641376 377.14243436 C-29.86198559 377.22040438 -44.77771152 376.51822422 -58.93255138 368.95119596 C-59.58860363 368.61160855 -60.24465588 368.27202115 -60.92058849 367.92214322 C-67.1297425 364.58634604 -72.44333805 360.41384299 -77.62005138 355.63869596 C-78.56557873 354.81305142 -78.56557873 354.81305142 -79.53020763 353.97072721 C-93.40594888 341.16964473 -102.00380623 322.13749342 -102.99189281 303.3805325 C-103.18755189 297.23851078 -103.1616419 291.09749431 -103.13762951 284.95314908 C-103.1430602 282.60239091 -103.15018814 280.25163614 -103.15886974 277.90088773 C-103.17699319 271.55996797 -103.17008104 265.21931065 -103.1573534 258.87838674 C-103.14820367 252.89382448 -103.1552163 246.90928537 -103.16106218 240.92472368 C-103.17242883 228.34988485 -103.15941611 215.77516326 -103.13786072 203.20034367 C-103.11999327 192.444547 -103.12309849 181.6889231 -103.14153576 170.93312955 C-103.16301208 158.39883376 -103.17133056 145.86464033 -103.1590867 133.3303287 C-103.15279492 126.71136875 -103.15194695 120.09250464 -103.16523266 113.47355008 C-103.17685694 107.24840484 -103.16864573 101.02358323 -103.14565563 94.79847264 C-103.14040355 92.52502914 -103.14182161 90.25155802 -103.15070629 87.97812581 C-103.24546575 61.24991793 -96.76454272 40.50750872 -78.12005138 20.76369596 C-55.8915886 -0.26744916 -28.64716904 -0.12902186 0 0 Z " fill="#1F2F28" transform="translate(148.62005138397217,77.36130404472351)"/>
<path d="M0 0 C8.69069538 5.85891571 16.106697 14.06006409 23.55029297 21.42163086 C24.65502914 22.50971025 25.76511636 23.59238222 26.88037109 24.66967773 C38.01394506 35.4291506 45.16873394 46.56883506 45.7644043 62.54833984 C44.86487216 86.87481768 27.61767688 100.53345164 11.61376953 116.54760742 C9.92082039 118.24519227 8.22806648 119.94297183 6.53549194 121.64093018 C1.96170841 126.22775833 -2.61532239 130.81133434 -7.1934216 135.39385438 C-10.0563007 138.25950979 -12.91844743 141.12589592 -15.78046989 143.99240685 C-23.72003187 151.94414081 -31.6605252 159.89494211 -39.60447788 167.84228992 C-40.11104604 168.34907765 -40.61761421 168.85586538 -41.13953292 169.37801031 C-41.64722235 169.88591802 -42.15491177 170.39382572 -42.67798573 170.91712457 C-43.70654933 171.94613162 -44.73511138 172.97514023 -45.76367188 174.00415039 C-46.27386023 174.51456018 -46.78404859 175.02496997 -47.3096972 175.55084672 C-55.58958872 183.83469249 -63.86269427 192.12528042 -72.1329285 200.41876654 C-80.64338375 208.95295434 -89.15947232 217.48148683 -97.68121952 226.00439948 C-102.45815367 230.78224855 -107.23266286 235.56246524 -112.00094795 240.34894753 C-116.48169699 244.84616988 -120.96954509 249.33618427 -125.46292496 253.82078552 C-127.10862304 255.46571312 -128.75176671 257.11320098 -130.3921299 258.76344872 C-132.63498569 261.01902359 -134.88694644 263.26510757 -137.14137268 265.5091095 C-137.78506493 266.16085815 -138.42875717 266.8126068 -139.09195524 267.48410541 C-149.6512895 277.92992622 -161.25893972 280.66428485 -175.4230957 283.86083984 C-178.09188652 284.46796188 -180.75974845 285.07903144 -183.42700195 285.69287109 C-184.1032663 285.84844986 -184.77953064 286.00402863 -185.47628784 286.1643219 C-190.15281494 287.24941663 -194.80500044 288.41172381 -199.45043945 289.62255859 C-200.69656006 289.94514648 -201.94268066 290.26773437 -203.2265625 290.60009766 C-205.5861183 291.21578558 -207.94324162 291.84090112 -210.29736328 292.47705078 C-221.25867526 295.32491089 -230.3048581 295.8717029 -240.6105957 290.61083984 C-243.5765413 288.52761615 -246.09759707 286.21542841 -248.6105957 283.61083984 C-249.5387207 282.68271484 -250.4668457 281.75458984 -251.4230957 280.79833984 C-256.69685005 273.11372636 -257.68934378 264.23988967 -256.20918274 255.144104 C-255.64267882 252.62603383 -255.01062771 250.13576105 -254.3449707 247.64208984 C-254.1103009 246.72230347 -253.8756311 245.80251709 -253.6338501 244.8548584 C-252.88729542 241.93716493 -252.12473561 239.02397182 -251.3605957 236.11083984 C-250.37161481 232.28910285 -249.3893374 228.46565973 -248.4074707 224.64208984 C-248.04659111 223.24669983 -248.04659111 223.24669983 -247.67842102 221.82312012 C-245.93443954 215.03163697 -244.35464702 208.2154273 -242.93243408 201.34924316 C-239.09778906 183.25066483 -223.50830167 171.35222384 -210.95849609 158.78173828 C-209.27865253 157.09561944 -207.59899553 155.40931472 -205.91950989 153.72283936 C-200.90884045 148.69307342 -195.89397676 143.66750431 -190.87821522 138.6428169 C-188.98482648 136.74590959 -187.09175139 134.84868943 -185.19869171 132.95145373 C-176.83852839 124.57285236 -168.47702214 116.19559388 -160.1114893 107.82235336 C-158.0725262 105.78148087 -156.03356863 103.74060287 -153.99462891 101.69970703 C-153.48795578 101.19255017 -152.98128266 100.68539331 -152.45925581 100.16286805 C-144.2407477 91.93604859 -136.03080444 83.70073672 -127.82437391 75.46187136 C-119.37679739 66.9811819 -110.92166901 58.50808117 -102.45911592 50.04233575 C-97.71655729 45.29761776 -92.97753764 40.54948325 -88.24650764 35.7932663 C-83.79911338 31.32257336 -79.34226912 26.86152141 -74.87808037 22.4076004 C-73.24524259 20.77525748 -71.61580009 19.1395098 -69.99009705 17.50006104 C-67.76337728 15.25557602 -65.52452775 13.02390308 -63.28236389 10.79486084 C-62.64838828 10.14991598 -62.01441266 9.50497112 -61.36122566 8.84048247 C-44.82770011 -7.46179381 -20.29813134 -12.15774715 0 0 Z M-40.3684082 35.00537109 C-43.4210304 38.55258191 -46.72619262 41.81716941 -50.0480957 45.11083984 C-50.6881958 45.74675049 -51.3282959 46.38266113 -51.98779297 47.0378418 C-53.52667577 48.56424548 -55.06834429 50.08783983 -56.6105957 51.61083984 C-52.04912023 57.0839795 -47.20318249 62.15038793 -42.1496582 67.16943359 C-41.35909027 67.95858658 -40.56852234 68.74773956 -39.7539978 69.56080627 C-37.25021945 72.05902646 -34.74297096 74.55373029 -32.2355957 77.04833984 C-30.52833322 78.75058192 -28.82129961 80.45305357 -27.11450195 82.15576172 C-22.94917672 86.31011348 -18.78100351 90.46159066 -14.6105957 94.61083984 C-9.10052903 89.95126636 -3.90335208 85.08666842 1.2019043 79.98583984 C1.96438477 79.23560547 2.72686523 78.48537109 3.51245117 77.71240234 C4.24141602 76.98537109 4.97038086 76.25833984 5.72143555 75.50927734 C6.37861572 74.85620605 7.0357959 74.20313477 7.71289062 73.53027344 C10.56005922 70.27056185 11.67921264 67.54725504 11.7019043 63.23583984 C11.72704102 62.14142578 11.72704102 62.14142578 11.75268555 61.02490234 C10.5824558 53.24853695 4.50572612 48.23515798 -0.796875 42.97851562 C-2.28906519 41.49481895 -3.76165749 39.99345817 -5.23364258 38.48974609 C-11.18062867 32.49798423 -16.47242769 27.24184293 -25.1730957 26.17333984 C-32.50777112 27.10684399 -35.84215059 29.44662614 -40.3684082 35.00537109 Z M-81.93783188 76.81502819 C-82.78950628 77.66808528 -82.78950628 77.66808528 -83.65838623 78.53837585 C-84.63406555 79.51199318 -84.63406555 79.51199318 -85.62945557 80.50527954 C-86.34736267 81.22678192 -87.06526978 81.9482843 -87.80493164 82.69165039 C-88.55782471 83.44439743 -89.31071777 84.19714447 -90.08642578 84.97270203 C-92.59164967 87.47862629 -95.09330481 89.98808277 -97.5949707 92.49755859 C-99.3301248 94.23457734 -101.06549952 95.97137574 -102.80108643 97.70796204 C-107.38481555 102.29552013 -111.96553693 106.88607027 -116.5456543 111.47723389 C-121.19312176 116.13487903 -125.84337147 120.78974439 -130.4934082 125.44482422 C-138.01403212 132.97425385 -145.53291657 140.50541536 -153.04962158 148.03875732 C-156.56795845 151.5647779 -160.08764144 155.08943111 -163.6105957 158.61083984 C-164.26145142 159.26169556 -164.91230713 159.91255127 -165.58288574 160.58312988 C-175.96386719 170.96411133 -186.34484863 181.34509277 -196.72583008 191.72607422 C-197.40282959 192.40565186 -198.0798291 193.08522949 -198.77734375 193.78540039 C-200.29481426 195.29640412 -201.83727138 196.78226764 -203.38598633 198.26123047 C-209.05273775 204.24639461 -210.88155789 210.17486656 -212.8449707 217.99365234 C-213.1278595 219.08547821 -213.41074829 220.17730408 -213.70220947 221.30221558 C-214.29572113 223.60210922 -214.88372795 225.90342964 -215.46655273 228.20605469 C-216.36004521 231.73366642 -217.27094934 235.25642575 -218.18481445 238.77880859 C-218.76005723 241.01682688 -219.33431026 243.25509986 -219.9074707 245.49365234 C-220.17928162 246.54787384 -220.45109253 247.60209534 -220.73114014 248.68826294 C-221.10217865 250.16031693 -221.10217865 250.16031693 -221.48071289 251.66210938 C-221.69959167 252.52337433 -221.91847046 253.38463928 -222.14398193 254.27200317 C-222.74102972 256.8671341 -222.74102972 256.8671341 -222.6105957 260.61083984 C-216.46112556 259.97363049 -210.65139831 258.75369727 -204.66918945 257.21240234 C-203.2794265 256.85896255 -203.2794265 256.85896255 -201.86158752 256.49838257 C-199.91377453 256.001523 -197.96659249 255.50218401 -196.02001953 255.00048828 C-193.05541774 254.23772374 -190.08809677 253.48630732 -187.12036133 252.73583984 C-185.21979616 252.24954234 -183.3193996 251.76258528 -181.41918945 251.27490234 C-180.53984238 251.05291168 -179.6604953 250.83092102 -178.75450134 250.60220337 C-177.91995926 250.38542938 -177.08541718 250.1686554 -176.22558594 249.9453125 C-175.50136948 249.75957672 -174.77715302 249.57384094 -174.0309906 249.38247681 C-167.68672955 247.35988689 -163.68903677 245.18909634 -158.94740295 240.42866516 C-158.42281083 239.90749074 -157.89821871 239.38631631 -157.35772985 238.84934872 C-155.61476102 237.1129313 -153.88641171 235.36267801 -152.15771484 233.61206055 C-150.90632634 232.35954298 -149.65405485 231.10790709 -148.40097046 229.85708618 C-145.01024759 226.46750906 -141.63198333 223.06575744 -138.2558434 219.66166329 C-134.72228819 216.10307158 -131.17737179 212.55583424 -127.63365173 209.00737 C-120.92867266 202.28996781 -114.23395374 195.56243606 -107.54287285 188.83119315 C-99.9232008 181.16678288 -92.29214236 173.51375272 -84.6601125 165.86165106 C-68.96424939 150.12399866 -53.28272004 134.37212999 -37.6105957 118.61083984 C-40.83116306 114.80213148 -44.05354249 111.04300124 -47.58056641 107.51147461 C-48.2976326 106.79125626 -49.01469879 106.0710379 -49.75349426 105.32899475 C-50.50684555 104.57766769 -51.26019684 103.82634064 -52.03637695 103.05224609 C-52.82457321 102.26309311 -53.61276947 101.47394012 -54.42485046 100.66087341 C-56.07839216 99.0066551 -57.7331818 97.35368335 -59.38916016 95.7019043 C-61.93614522 93.16031799 -64.477696 90.61338395 -67.01879883 88.06591797 C-68.62850394 86.45687289 -70.23851881 84.84813762 -71.84887695 83.23974609 C-72.6123494 82.47424942 -73.37582184 81.70875275 -74.16242981 80.9200592 C-74.8637352 80.22190598 -75.56504059 79.52375275 -76.28759766 78.80444336 C-77.21642509 77.87680931 -77.21642509 77.87680931 -78.16401672 76.93043518 C-80.05504505 75.17652271 -80.05504505 75.17652271 -81.93783188 76.81502819 Z " fill="#02A95B" transform="translate(410.610595703125,53.38916015625)"/>
<path d="M0 0 C0 3.10551666 -0.5393715 4.35261084 -2 7 C-2.66 7 -3.32 7 -4 7 C-4 7.66 -4 8.32 -4 9 C-4.66 9 -5.32 9 -6 9 C-6.2475 9.5775 -6.495 10.155 -6.75 10.75 C-8.82554091 14.48597363 -10.93173944 16.64391315 -15 18 C-15.639375 18.969375 -16.27875 19.93875 -16.9375 20.9375 C-18.90250982 23.85524185 -19.7832197 24.85114989 -23 26 C-23 26.66 -23 27.32 -23 28 C-24.6222454 29.70993434 -26.29413425 31.37347684 -28 33 C-30.06793593 34.99134571 -31.37169501 36.55754252 -33 39 C-35.625 39.1875 -35.625 39.1875 -38 39 C-33.69372744 33.85170256 -29.17688069 29.04247928 -24.4140625 24.31640625 C-23.71227875 23.61603745 -23.010495 22.91566864 -22.28744507 22.19407654 C-20.06898864 19.98116973 -17.84706185 17.77178584 -15.625 15.5625 C-14.11044534 14.05296686 -12.59612015 12.54320343 -11.08203125 11.03320312 C-7.39066901 7.35280298 -3.69645931 3.67528043 0 0 Z " fill="#49BE89" transform="translate(368,176)"/>
<path d="M0 0 C0.99 0.33 1.98 0.66 3 1 C3 1.66 3 2.32 3 3 C3.66 3 4.32 3 5 3 C6.99785435 7.1205746 7.17835515 10.45194365 7 15 C6.34 15 5.68 15 5 15 C5 18.96 5 22.92 5 27 C3.02 27 1.04 27 -1 27 C-1.66 27.99 -2.32 28.98 -3 30 C-3.66 29.67 -4.32 29.34 -5 29 C-5.33 29.99 -5.66 30.98 -6 32 C-9.0625 33.1875 -9.0625 33.1875 -12 34 C-8.35844252 29.64789472 -4.6433682 25.57110648 -0.515625 21.67578125 C2.9917358 17.79779727 3.36163583 14.3855038 3.26953125 9.328125 C2.86077615 5.79742875 1.61029716 3.15349861 0 0 Z " fill="#08A75D" transform="translate(418,105)"/>
<path d="M0 0 C0.33 0.66 0.66 1.32 1 2 C0.05988318 3.70116376 -0.94895617 5.36504293 -2 7 C-2.268125 7.70125 -2.53625 8.4025 -2.8125 9.125 C-4 11 -4 11 -6.875 12.375 C-10.22201043 13.78255449 -10.22201043 13.78255449 -11.9375 17.0625 C-14.55549375 20.79115776 -16.62501564 21.15865685 -21 22 C-16.61557474 16.74825074 -11.99157907 11.86777527 -7.125 7.0625 C-6.43664062 6.37865234 -5.74828125 5.69480469 -5.0390625 4.99023438 C-3.36166489 3.32448536 -1.68196209 1.6611378 0 0 Z " fill="#53C490" transform="translate(272,272)"/>
<path d="M0 0 C10.65539794 0.45342119 20.93790792 3.69738036 29 11 C29 11.99 29 12.98 29 14 C28.67 13.34 28.34 12.68 28 12 C27.236875 11.87625 26.47375 11.7525 25.6875 11.625 C23 11 23 11 21.23046875 9.0625 C18.43154544 6.47435375 16.34221305 6.09418108 12.625 5.375 C8.28157272 4.51038333 4.17855988 3.47701361 0 2 C0 1.34 0 0.68 0 0 Z " fill="#4AB584" transform="translate(388,47)"/>
<path d="M0 0 C2.64 0 5.28 0 8 0 C7.67 0.66 7.34 1.32 7 2 C6.34 2 5.68 2 5 2 C5 2.66 5 3.32 5 4 C5.680625 4.12375 6.36125 4.2475 7.0625 4.375 C10 5 10 5 13.1875 6 C17.17489149 7.04587318 20.82612247 7.40669677 24.9375 7.625 C25.62134766 7.66367187 26.30519531 7.70234375 27.00976562 7.7421875 C28.67279513 7.83522412 30.33635847 7.91863787 32 8 C32 8.33 32 8.66 32 9 C22.82853355 11.44572439 14.44998469 10.12581412 6 6 C3.6948354 4.4721067 1.96881862 2.96881862 0 1 C0 0.67 0 0.34 0 0 Z " fill="#2BAA73" transform="translate(164,338)"/>
<path d="M0 0 C0.62182617 1.84326172 0.62182617 1.84326172 1 4 C-0.94921875 6.5078125 -0.94921875 6.5078125 -3.6875 9.125 C-4.57824219 9.99382812 -5.46898437 10.86265625 -6.38671875 11.7578125 C-9 14 -9 14 -11.26953125 15.1171875 C-13.36709496 15.93235017 -13.36709496 15.93235017 -14 19 C-17.0625 20.1875 -17.0625 20.1875 -20 21 C-15.76183463 15.93376232 -11.32591037 11.19961931 -6.625 6.5625 C-5.98433594 5.92634766 -5.34367187 5.29019531 -4.68359375 4.63476562 C-3.12469121 3.08749668 -1.56348584 1.54263508 0 0 Z " fill="#2EA871" transform="translate(316,96)"/>
<path d="M0 0 C1.32 0.33 2.64 0.66 4 1 C-0.95 5.95 -5.9 10.9 -11 16 C-11.66 15.34 -12.32 14.68 -13 14 C-12.649375 13.38125 -12.29875 12.7625 -11.9375 12.125 C-11.628125 11.42375 -11.31875 10.7225 -11 10 C-11.33 9.34 -11.66 8.68 -12 8 C-8.62902617 6.50178941 -6.79557881 6 -3 6 C-3.33 4.68 -3.66 3.36 -4 2 C-2.68 2 -1.36 2 0 2 C0 1.34 0 0.68 0 0 Z " fill="#4DBD8A" transform="translate(301,154)"/>
<path d="M0 0 C0 6.01371991 -4.38061378 9.61184486 -8.37890625 13.64453125 C-10 15 -10 15 -12 15 C-12.33 16.32 -12.66 17.64 -13 19 C-13.33 18.34 -13.66 17.68 -14 17 C-14.66 16.67 -15.32 16.34 -16 16 C-10.72 10.72 -5.44 5.44 0 0 Z " fill="#47BD87" transform="translate(303,241)"/>
<path d="M0 0 C-2.90655387 2.90655387 -6.34854552 3.64292876 -10.3125 4.5 C-10.869375 4.665 -11.42625 4.83 -12 5 C-12.33 5.66 -12.66 6.32 -13 7 C-13.66 7 -14.32 7 -15 7 C-16.71193325 7.31432217 -18.41995264 7.65024669 -20.125 8 C-21.03507812 8.185625 -21.94515625 8.37125 -22.8828125 8.5625 C-23.58148438 8.706875 -24.28015625 8.85125 -25 9 C-22.45579765 5.98921383 -19.68308065 4.83397317 -16.0625 3.375 C-14.50208984 2.73691406 -14.50208984 2.73691406 -12.91015625 2.0859375 C-8.37373087 0.39315058 -4.86165125 -0.11049207 0 0 Z " fill="#49BC89" transform="translate(383,47)"/>
<path d="M0 0 C0 3.10551666 -0.5393715 4.35261084 -2 7 C-2.66 7 -3.32 7 -4 7 C-4 7.66 -4 8.32 -4 9 C-4.66 9 -5.32 9 -6 9 C-6.2475 9.5775 -6.495 10.155 -6.75 10.75 C-8.93188824 14.67739884 -11.03400287 16.62846264 -15.25 18.25 C-16.1575 18.4975 -17.065 18.745 -18 19 C-12.44964797 12.21623641 -6.23557973 6.14477032 0 0 Z " fill="#43BB88" transform="translate(368,176)"/>
<path d="M0 0 C4.65372238 6.98058357 3.58162851 16.7056402 2 24.625 C1.676436 26.08553194 1.34677029 27.54480325 1 29 C0.67 29 0.34 29 0 29 C0 19.43 0 9.86 0 0 Z " fill="#61BF9A" transform="translate(453,102)"/>
<path d="M0 0 C-1.32640598 3.97921795 -3.86217212 5.40103504 -7.1796875 7.62890625 C-9.96772203 9.72890651 -11.8811368 12.23905704 -14 15 C-15.32 14.67 -16.64 14.34 -18 14 C-15.87801168 11.85111324 -13.75260401 9.70581417 -11.625 7.5625 C-11.02171875 6.95083984 -10.4184375 6.33917969 -9.796875 5.70898438 C-9.21679688 5.12568359 -8.63671875 4.54238281 -8.0390625 3.94140625 C-7.23782959 3.13231812 -7.23782959 3.13231812 -6.42041016 2.30688477 C-4.15277982 0.22049336 -3.14726706 0 0 0 Z " fill="#2BAC72" transform="translate(360,56)"/>
<path d="M0 0 C0.33 0.66 0.66 1.32 1 2 C-0.25 5.0625 -0.25 5.0625 -2 8 C-2.99 8.33 -3.98 8.66 -5 9 C-6.68873879 10.64429829 -8.35305515 12.31384218 -10 14 C-11.64864545 15.35555293 -13.31003995 16.69631653 -15 18 C-15.66 17.67 -16.32 17.34 -17 17 C-11.39 11.39 -5.78 5.78 0 0 Z " fill="#28AB6F" transform="translate(199,213)"/>
<path d="M0 0 C0.33 1.32 0.66 2.64 1 4 C0.071875 4.53625 -0.85625 5.0725 -1.8125 5.625 C-5.24016479 8.17894631 -6.4037685 10.09810078 -8 14 C-8.99 13.67 -9.98 13.34 -11 13 C-11.66 14.65 -12.32 16.3 -13 18 C-14.32 17.67 -15.64 17.34 -17 17 C-11.39 11.39 -5.78 5.78 0 0 Z " fill="#22A76B" transform="translate(269,143)"/>
<path d="M0 0 C1.32 0.33 2.64 0.66 4 1 C-0.95 5.95 -5.9 10.9 -11 16 C-11.33 14.68 -11.66 13.36 -12 12 C-10.25 9.75 -10.25 9.75 -8 8 C-7.01 8 -6.02 8 -5 8 C-5 7.01 -5 6.02 -5 5 C-4.01 5 -3.02 5 -2 5 C-1.855625 4.360625 -1.71125 3.72125 -1.5625 3.0625 C-1 1 -1 1 0 0 Z " fill="#51C48D" transform="translate(278,177)"/>
<path d="M0 0 C2.6875 -0.3125 2.6875 -0.3125 5 0 C0.90473413 4.89434213 -3.26357085 9.70720334 -8 14 C-8.33 14 -8.66 14 -9 14 C-9 12.35 -9 10.7 -9 9 C-7.68 8.67 -6.36 8.34 -5 8 C-5 7.01 -5 6.02 -5 5 C-4.34 5 -3.68 5 -3 5 C-2.566875 4.175 -2.13375 3.35 -1.6875 2.5 C-1.130625 1.675 -0.57375 0.85 0 0 Z " fill="#4AC187" transform="translate(237,217)"/>
<path d="M0 0 C0 3.13751221 -0.35179805 4.39757586 -2 7 C-2.99 7.33 -3.98 7.66 -5 8 C-6.22776755 9.57237102 -6.22776755 9.57237102 -7.3125 11.4375 C-9.69841859 14.98728132 -11.73575545 16.1074837 -16 17 C-11.01595832 10.96668638 -5.58084697 5.4815829 0 0 Z " fill="#26A76D" transform="translate(229,183)"/>
<path d="M0 0 C0.99 0.33 1.98 0.66 3 1 C3 1.66 3 2.32 3 3 C3.66 3 4.32 3 5 3 C6.99785435 7.1205746 7.17835515 10.45194365 7 15 C6.34 15 5.68 15 5 15 C5 16.32 5 17.64 5 19 C4.01 19.33 3.02 19.66 2 20 C2.23976563 19.14341797 2.23976563 19.14341797 2.484375 18.26953125 C4.01720703 11.52274783 3.11023919 6.09088508 0 0 Z " fill="#46B786" transform="translate(418,105)"/>
<path d="M0 0 C0 2.83967231 -0.40267181 5.23735711 -1 8 C-1.721875 8.061875 -2.44375 8.12375 -3.1875 8.1875 C-6.88556786 9.25583071 -8.44412779 11.17508861 -11 14 C-12 15 -13 16 -14 17 C-14.66 16.67 -15.32 16.34 -16 16 C-10.72 10.72 -5.44 5.44 0 0 Z " fill="#30A26D" transform="translate(341,71)"/>
<path d="M0 0 C1.32 0.66 2.64 1.32 4 2 C-0.15207792 6.2626362 -4.36321221 10.26795129 -9 14 C-9.33 13.01 -9.66 12.02 -10 11 C-7.31688174 8.23432426 -4.41148091 5.83170186 -1.42578125 3.40234375 C-0.95527344 2.93957031 -0.48476562 2.47679687 0 2 C0 1.34 0 0.68 0 0 Z " fill="#59C398" transform="translate(213,241)"/>
<path d="M0 0 C0.33 1.32 0.66 2.64 1 4 C-0.96382007 5.50559539 -2.78263366 6.89131683 -5 8 C-5.65213292 10.02463255 -5.65213292 10.02463255 -6 12 C-7.98 12.33 -9.96 12.66 -12 13 C-8.19524578 8.43969176 -4.25030379 4.14910608 0 0 Z " fill="#23A56A" transform="translate(212,200)"/>
<path d="M0 0 C0.33 0.66 0.66 1.32 1 2 C-0.25 4.5625 -0.25 4.5625 -2 7 C-2.99 7.33 -3.98 7.66 -5 8 C-5.33 8.99 -5.66 9.98 -6 11 C-9.0625 12.1875 -9.0625 12.1875 -12 13 C-8.19524578 8.43969176 -4.25030379 4.14910608 0 0 Z " fill="#28A96E" transform="translate(242,170)"/>
<path d="M0 0 C0.66 0.33 1.32 0.66 2 1 C-2.62 5.62 -7.24 10.24 -12 15 C-12.33 14.01 -12.66 13.02 -13 12 C-12.50628906 11.59007812 -12.01257813 11.18015625 -11.50390625 10.7578125 C-10.86324219 10.21898437 -10.22257812 9.68015625 -9.5625 9.125 C-8.92441406 8.59132812 -8.28632813 8.05765625 -7.62890625 7.5078125 C-5.89194996 6.0777243 -5.89194996 6.0777243 -5 4 C-4.34 4 -3.68 4 -3 4 C-3 3.01 -3 2.02 -3 1 C-2.01 0.67 -1.02 0.34 0 0 Z " fill="#14A063" transform="translate(429,160)"/>
<path d="M0 0 C0.33 0.66 0.66 1.32 1 2 C0.05988318 3.70116376 -0.94895617 5.36504293 -2 7 C-2.268125 7.721875 -2.53625 8.44375 -2.8125 9.1875 C-4.60652174 11.9257437 -6.93526809 12.20050472 -10 13 C-9.401875 12.278125 -8.80375 11.55625 -8.1875 10.8125 C-5.99115882 8.10839322 -5.99115882 8.10839322 -4.4375 5.375 C-3.13157376 3.21738273 -1.85876752 1.68174204 0 0 Z " fill="#2DB678" transform="translate(272,272)"/>
<path d="M0 0 C2.33285378 2.13900633 3.7868759 4.16655353 5.1875 7 C5.53167969 7.680625 5.87585938 8.36125 6.23046875 9.0625 C7 11 7 11 7 14 C5.68 13.67 4.36 13.34 3 13 C2.67 10.03 2.34 7.06 2 4 C1.34 4 0.68 4 0 4 C0 2.68 0 1.36 0 0 Z " fill="#69C39E" transform="translate(446,88)"/>
<path d="M0 0 C0.99 0.33 1.98 0.66 3 1 C-1.29 5.29 -5.58 9.58 -10 14 C-10.33 12.68 -10.66 11.36 -11 10 C-10.113125 9.46375 -9.22625 8.9275 -8.3125 8.375 C-4.81711784 6.06688542 -2.55125342 3.30162207 0 0 Z " fill="#14A063" transform="translate(380,208)"/>
<path d="M0 0 C0.99 0 1.98 0 3 0 C3 0.66 3 1.32 3 2 C3.99 1.67 4.98 1.34 6 1 C6.2475 1.556875 6.495 2.11375 6.75 2.6875 C8.21606015 5.39971127 10.02989471 7.63587365 12 10 C11.67 10.66 11.34 11.32 11 12 C9.16364422 10.19047409 7.33083792 8.37759362 5.5 6.5625 C4.97535156 6.04623047 4.45070313 5.52996094 3.91015625 4.99804688 C2.58775448 3.68423213 1.29164432 2.34406495 0 1 C0 0.67 0 0.34 0 0 Z " fill="#14A365" transform="translate(400,87)"/>
<path d="M0 0 C0.99 0.33 1.98 0.66 3 1 C-0.63 4.63 -4.26 8.26 -8 12 C-8.33 11.01 -8.66 10.02 -9 9 C-8.34 9 -7.68 9 -7 9 C-7 8.34 -7 7.68 -7 7 C-6.34 7 -5.68 7 -5 7 C-4.67 5.68 -4.34 4.36 -4 3 C-3.34 3 -2.68 3 -2 3 C-1.67 2.34 -1.34 1.68 -1 1 C-0.67 0.67 -0.34 0.34 0 0 Z " fill="#1DA468" transform="translate(348,240)"/>
<path d="M0 0 C0.74609375 1.734375 0.74609375 1.734375 1 4 C-0.65234375 6.140625 -0.65234375 6.140625 -2.9375 8.25 C-3.68902344 8.95640625 -4.44054687 9.6628125 -5.21484375 10.390625 C-5.80394531 10.92171875 -6.39304687 11.4528125 -7 12 C-7 7.45039238 -4.87872706 4.92894004 -1.8125 1.6875 C-1.214375 1.130625 -0.61625 0.57375 0 0 Z " fill="#1EA96A" transform="translate(316,96)"/>
<path d="M0 0 C1.60517097 0.08733576 3.20921662 0.19552224 4.8125 0.3125 C6.15248047 0.39951172 6.15248047 0.39951172 7.51953125 0.48828125 C10.30604 1.06313581 11.24135754 1.8206856 13 4 C9.44757118 5.18414294 8.30169438 4.69535532 4.8125 3.5625 C3.91144531 3.27503906 3.01039063 2.98757812 2.08203125 2.69140625 C1.39496094 2.46324219 0.70789063 2.23507813 0 2 C0 1.34 0 0.68 0 0 Z " fill="#3DB67E" transform="translate(388,47)"/>
<path d="M0 0 C0.33 0.99 0.66 1.98 1 3 C-4.23152709 8.66748768 -4.23152709 8.66748768 -8 9 C-10.33300933 9.03888349 -12.66709801 9.0448635 -15 9 C-12.53096349 7.71610101 -10.09787108 6.64559221 -7.5 5.625 C-4.18487719 4.08583584 -2.35725269 2.73441311 0 0 Z " fill="#5BC496" transform="translate(250,294)"/>
<path d="M0 0 C0.33 0 0.66 0 1 0 C0.67 5.61 0.34 11.22 0 17 C-0.66 17 -1.32 17 -2 17 C-2.33 17.66 -2.66 18.32 -3 19 C-2.27637073 12.60794144 -1.19656638 6.31972924 0 0 Z " fill="#43AE7F" transform="translate(167,256)"/>
<path d="M0 0 C4.91935902 4.11619836 9.52647956 8.40410362 14 13 C13.01 13.495 13.01 13.495 12 14 C8.15189774 12.71729925 8.05217504 11.42029173 6 8 C4.96173026 6.91381012 3.89767894 5.85182631 2.8125 4.8125 C1.884375 3.884375 0.95625 2.95625 0 2 C0 1.34 0 0.68 0 0 Z " fill="#219863" transform="translate(368,120)"/>
<path d="M0 0 C0 2.66420516 -0.09162237 4.52260646 -1 7 C-1.99 7.33 -2.98 7.66 -4 8 C-3.67 8.66 -3.34 9.32 -3 10 C-4.98 10 -6.96 10 -9 10 C-8.06409496 8.8944811 -7.12620142 7.79064547 -6.1875 6.6875 C-5.66542969 6.07261719 -5.14335937 5.45773438 -4.60546875 4.82421875 C-3.12827531 3.14575321 -1.59960869 1.56117966 0 0 Z " fill="#26A76B" transform="translate(287,125)"/>
<path d="M0 0 C0.33 0.66 0.66 1.32 1 2 C-0.60162941 6.13754265 -2.63792628 8.39815347 -6.6875 10.1875 C-7.450625 10.455625 -8.21375 10.72375 -9 11 C-7.59155282 7.78475695 -5.89655214 5.67816132 -3.375 3.25 C-2.74335938 2.63640625 -2.11171875 2.0228125 -1.4609375 1.390625 C-0.73777344 0.70226562 -0.73777344 0.70226562 0 0 Z " fill="#4FC69B" transform="translate(405,139)"/>
<path d="M0 0 C1.32 0.66 2.64 1.32 4 2 C2.02 4.31 0.04 6.62 -2 9 C-3 5 -3 5 -1.5625 2.25 C-1.046875 1.5075 -0.53125 0.765 0 0 Z " fill="#37B57A" transform="translate(308,145)"/>
<path d="M0 0 C0.99 0.33 1.98 0.66 3 1 C0.36 3.64 -2.28 6.28 -5 9 C-5.66 7.68 -6.32 6.36 -7 5 C-6.01 4.67 -5.02 4.34 -4 4 C-4 3.34 -4 2.68 -4 2 C-2.68 2 -1.36 2 0 2 C0 1.34 0 0.68 0 0 Z " fill="#27AC70" transform="translate(321,267)"/>
<path d="M0 0 C1.32 0.66 2.64 1.32 4 2 C1.69 4.31 -0.62 6.62 -3 9 C-3.33 7.68 -3.66 6.36 -4 5 C-2.0625 2.25 -2.0625 2.25 0 0 Z " fill="#51C287" transform="translate(316,138)"/>
<path d="M0 0 C0.33 0.99 0.66 1.98 1 3 C-0.9628843 6.1708131 -2.12536 7.74158364 -5.75 8.8125 C-6.4925 8.874375 -7.235 8.93625 -8 9 C-7.04270084 7.87411986 -6.08412105 6.7493285 -5.125 5.625 C-4.59132813 4.99851562 -4.05765625 4.37203125 -3.5078125 3.7265625 C-2.38567993 2.44163349 -1.20628025 1.20628025 0 0 Z " fill="#54C393" transform="translate(286,258)"/>
<path d="M0 0 C0.66 0 1.32 0 2 0 C1.42365861 4.75481646 -0.55068521 7.97048212 -3 12 C-4.0326802 9.21176345 -4.04509293 8.1322726 -3.0625 5.25 C-2.711875 4.5075 -2.36125 3.765 -2 3 C-1.34 3 -0.68 3 0 3 C0 2.01 0 1.02 0 0 Z " fill="#54BC8C" transform="translate(451,131)"/>
<path d="M0 0 C0.33 0.66 0.66 1.32 1 2 C-0.11750953 4.88689962 -1.48417034 7.16150909 -4 9 C-5.32 8.67 -6.64 8.34 -8 8 C-5.36 5.36 -2.72 2.72 0 0 Z " fill="#55C78F" transform="translate(312,232)"/>
<path d="M0 0 C0.33 1.32 0.66 2.64 1 4 C-1.3125 6.0625 -1.3125 6.0625 -4 8 C-4.99 7.67 -5.98 7.34 -7 7 C-4.69 4.69 -2.38 2.38 0 0 Z " fill="#4DC38F" transform="translate(320,224)"/>
<path d="M0 0 C0.33 0.66 0.66 1.32 1 2 C0.0625 4.125 0.0625 4.125 -1 6 C-1.99 6 -2.98 6 -4 6 C-4 6.99 -4 7.98 -4 9 C-5.32 8.67 -6.64 8.34 -8 8 C-5.36 5.36 -2.72 2.72 0 0 Z " fill="#56C593" transform="translate(329,215)"/>
<path d="M0 0 C1.2065625 0.0309375 1.2065625 0.0309375 2.4375 0.0625 C1.48328192 1.21176266 0.52397955 2.35680541 -0.4375 3.5 C-0.97117188 4.13808594 -1.50484375 4.77617187 -2.0546875 5.43359375 C-3.5625 7.0625 -3.5625 7.0625 -5.5625 8.0625 C-5.8925 6.7425 -6.2225 5.4225 -6.5625 4.0625 C-5.2425 4.0625 -3.9225 4.0625 -2.5625 4.0625 C-2.8925 3.0725 -3.2225 2.0825 -3.5625 1.0625 C-2.5625 0.0625 -2.5625 0.0625 0 0 Z " fill="#62C197" transform="translate(247.5625,208.9375)"/>
<path d="M0 0 C0.625 1.8125 0.625 1.8125 1 4 C-1 7 -1 7 -4.125 7.6875 C-5.07375 7.790625 -6.0225 7.89375 -7 8 C-6.02133662 6.85373678 -5.04205413 5.70800212 -4.0625 4.5625 C-3.51722656 3.92441406 -2.97195313 3.28632813 -2.41015625 2.62890625 C-1.63204305 1.73008851 -0.84063472 0.84063472 0 0 Z " fill="#29AB70" transform="translate(277,135)"/>
<path d="M0 0 C0.33 0.66 0.66 1.32 1 2 C1.66 2 2.32 2 3 2 C6.34821429 8.96428571 6.34821429 8.96428571 5 13 C4.15930585 11.39967863 3.32768495 9.79458829 2.5 8.1875 C1.80390625 6.84751953 1.80390625 6.84751953 1.09375 5.48046875 C0 3 0 3 0 0 Z " fill="#676F6A" transform="translate(51,402)"/>
<path d="M0 0 C1.12377697 3.30435084 0.89554742 5.0506862 -0.4375 8.25 C-0.72496094 8.95640625 -1.01242188 9.6628125 -1.30859375 10.390625 C-1.53675781 10.92171875 -1.76492187 11.4528125 -2 12 C-2.66 12 -3.32 12 -4 12 C-3.45660208 7.43545749 -2.20536179 4.0271824 0 0 Z " fill="#66BF9A" transform="translate(172,243)"/>
<path d="M0 0 C1.32 0.66 2.64 1.32 4 2 C0.535 4.97 0.535 4.97 -3 8 C-3.33 6.68 -3.66 5.36 -4 4 C-2.0625 1.75 -2.0625 1.75 0 0 Z " fill="#5CBD94" transform="translate(285,169)"/>
<path d="M0 0 C1.32 0 2.64 0 4 0 C4.25 2.3125 4.25 2.3125 4 5 C2 6.8125 2 6.8125 0 8 C-0.33 7.34 -0.66 6.68 -1 6 C-0.33333333 4.66666667 0.33333333 3.33333333 1 2 C0.67 1.34 0.34 0.68 0 0 Z " fill="#35B47B" transform="translate(289,162)"/>
<path d="M0 0 C0.33 0 0.66 0 1 0 C1.38133299 1.9914056 1.71325582 3.99279077 2 6 C1.67 6.33 1.34 6.66 1 7 C0.76924918 8.34747084 0.58846937 9.70377565 0.4375 11.0625 C0.2209375 13.0115625 0.2209375 13.0115625 0 15 C-2.60329886 11.09505171 -1.80930803 8.37202275 -1 4 C-0.69830934 2.65915264 -0.38482319 1.3193938 0 0 Z " fill="#32AA77" transform="translate(157,298)"/>
<path d="M0 0 C0.66 0.33 1.32 0.66 2 1 C-0.97 3.97 -3.94 6.94 -7 10 C-7.33 8.68 -7.66 7.36 -8 6 C-7.01 6 -6.02 6 -5 6 C-5 5.34 -5 4.68 -5 4 C-3.37373596 2.61767557 -1.7074998 1.28062485 0 0 Z " fill="#1CA368" transform="translate(360,229)"/>
<path d="M0 0 C1.32 0.33 2.64 0.66 4 1 C0.535 3.97 0.535 3.97 -3 7 C-3.33 5.68 -3.66 4.36 -4 3 C-2.25 1.4375 -2.25 1.4375 0 0 Z " fill="#51C18E" transform="translate(222,233)"/>
<path d="M0 0 C0.66 1.32 1.32 2.64 2 4 C-1.33333333 5.66666667 -4.66666667 7.33333333 -8 9 C-7.04270084 7.87411986 -6.08412105 6.7493285 -5.125 5.625 C-4.59132812 4.99851563 -4.05765625 4.37203125 -3.5078125 3.7265625 C-2.38567993 2.44163349 -1.20628025 1.20628025 0 0 Z " fill="#23A46B" transform="translate(251,161)"/>
<path d="M0 0 C1.32 0 2.64 0 4 0 C3.65120368 3.25543229 2.97866739 4.01873107 0.4375 6.25 C-0.366875 6.8275 -1.17125 7.405 -2 8 C-2 6.68 -2 5.36 -2 4 C-1.34 4 -0.68 4 0 4 C0 2.68 0 1.36 0 0 Z " fill="#43BB8F" transform="translate(364,89)"/>
<path d="M0 0 C0 3.21518097 -0.1621112 4.41024759 -2 7 C-5.125 8.25 -5.125 8.25 -8 9 C-7.04270084 7.87411986 -6.08412105 6.7493285 -5.125 5.625 C-4.59132812 4.99851563 -4.05765625 4.37203125 -3.5078125 3.7265625 C-2.38567993 2.44163349 -1.20628025 1.20628025 0 0 Z " fill="#33AC75" transform="translate(229,183)"/>
<path d="M0 0 C1.65 0 3.3 0 5 0 C2.42215154 2.64752004 0.08351902 4.94432065 -3 7 C-3 5.68 -3 4.36 -3 3 C-2.34 3 -1.68 3 -1 3 C-0.67 2.01 -0.34 1.02 0 0 Z " fill="#58BB93" transform="translate(327,128)"/>
<path d="M0 0 C2.64 0.33 5.28 0.66 8 1 C4.81237635 3.12508244 2.73487777 3.5020163 -1 4 C-0.67 2.68 -0.34 1.36 0 0 Z " fill="#2EA674" transform="translate(250,329)"/>
<path d="M0 0 C0.99 0.33 1.98 0.66 3 1 C0.69 3.31 -1.62 5.62 -4 8 C-4.33 7.01 -4.66 6.02 -5 5 C-4.34 4.01 -3.68 3.02 -3 2 C-2.01 2 -1.02 2 0 2 C0 1.34 0 0.68 0 0 Z " fill="#13A062" transform="translate(389,199)"/>
<path d="M0 0 C0.33 1.32 0.66 2.64 1 4 C-0.98 5.32 -2.96 6.64 -5 8 C-5.66 7.67 -6.32 7.34 -7 7 C-4.69 4.69 -2.38 2.38 0 0 Z " fill="#30AC73" transform="translate(269,143)"/>
<path d="M0 0 C0 2.83967231 -0.40267181 5.23735711 -1 8 C-2.32 7.67 -3.64 7.34 -5 7 C-3.70700306 4.11562221 -2.34058637 2.12780579 0 0 Z " fill="#21A76A" transform="translate(341,71)"/>
<path d="M0 0 C0 3 0 3 -1.25 4.75 C-3 6 -3 6 -5.1875 5.6875 C-5.785625 5.460625 -6.38375 5.23375 -7 5 C-4.63707344 2.47411298 -3.33537489 1.11179163 0 0 Z " fill="#22A96C" transform="translate(349,65)"/>
<path d="M0 0 C0.33 0 0.66 0 1 0 C2.35384615 6.27692308 2.35384615 6.27692308 0.5625 9.9375 C-0.2109375 10.9584375 -0.2109375 10.9584375 -1 12 C-2.45606519 7.47907032 -1.27032841 4.48351204 0 0 Z " fill="#24A46C" transform="translate(163,275)"/>
<path d="M0 0 C1.65 0 3.3 0 5 0 C3.38405168 2.04119788 1.7143618 4.04072937 0 6 C-0.66 6 -1.32 6 -2 6 C-1.34 4.02 -0.68 2.04 0 0 Z " fill="#54BA94" transform="translate(252,202)"/>
<path d="M0 0 C1.66611905 -0.042721 3.33382885 -0.04063832 5 0 C6 1 6 1 6.0625 3.5625 C6.041875 4.366875 6.02125 5.17125 6 6 C3.97945196 4.35830472 1.97956942 2.69088222 0 1 C0 0.67 0 0.34 0 0 Z " fill="#24A96D" transform="translate(357,155)"/>
<path d="M0 0 C2.475 0.495 2.475 0.495 5 1 C5.33 1.99 5.66 2.98 6 4 C6.66 4.33 7.32 4.66 8 5 C7.67 5.99 7.34 6.98 7 8 C5.83035398 6.8572081 4.66435444 5.71068285 3.5 4.5625 C2.8503125 3.92441406 2.200625 3.28632813 1.53125 2.62890625 C0 1 0 1 0 0 Z " fill="#27A56A" transform="translate(331,129)"/>
<path d="M0 0 C2.31 1.98 4.62 3.96 7 6 C6.34 6.66 5.68 7.32 5 8 C2.66666667 5.66666667 0.33333333 3.33333333 -2 1 C-1.34 0.67 -0.68 0.34 0 0 Z " fill="#2FAB75" transform="translate(439,81)"/>
<path d="M0 0 C0.33 0 0.66 0 1 0 C1.36644578 1.55966592 1.71760862 3.12292651 2.0625 4.6875 C2.25972656 5.55761719 2.45695313 6.42773438 2.66015625 7.32421875 C3.02032279 10.16001276 2.70909969 12.24789982 2 15 C1.67 15 1.34 15 1 15 C-0.32286246 10.03926578 -0.08893197 5.08888488 0 0 Z " fill="#48AE80" transform="translate(154,311)"/>
<path d="M0 0 C0 0.66 0 1.32 0 2 C-1.95927063 3.7143618 -3.95880212 5.38405168 -6 7 C-6.33 6.01 -6.66 5.02 -7 4 C-3.17391304 0 -3.17391304 0 0 0 Z " fill="#4CB285" transform="translate(210,248)"/>
<path d="M0 0 C0.33 0 0.66 0 1 0 C1 1.98 1 3.96 1 6 C-0.98 6 -2.96 6 -5 6 C-3.35830472 3.97945196 -1.69088222 1.97956942 0 0 Z " fill="#4CBF8F" transform="translate(335,209)"/>
<path d="M0 0 C0.99 0.33 1.98 0.66 3 1 C1.35 2.98 -0.3 4.96 -2 7 C-2.66 6.67 -3.32 6.34 -4 6 C-2.68 4.02 -1.36 2.04 0 0 Z " fill="#32B475" transform="translate(349,195)"/>
<path d="M0 0 C0 3.16880694 -0.2058242 4.43689172 -2 7 C-4.625 7.75 -4.625 7.75 -7 8 C-6.02133662 6.85373678 -5.04205413 5.70800212 -4.0625 4.5625 C-3.51722656 3.92441406 -2.97195313 3.28632813 -2.41015625 2.62890625 C-1.63204305 1.73008851 -0.84063472 0.84063472 0 0 Z " fill="#61CA9D" transform="translate(368,176)"/>
<path d="M0 0 C0.99 0.33 1.98 0.66 3 1 C2.67 2.32 2.34 3.64 2 5 C0.35 5.33 -1.3 5.66 -3 6 C-2.505 5.195625 -2.01 4.39125 -1.5 3.5625 C0.08419653 1.35103815 0.08419653 1.35103815 0 0 Z " fill="#38B57C" transform="translate(372,170)"/>
<path d="M0 0 C0.66 0.33 1.32 0.66 2 1 C-1.96 4.465 -1.96 4.465 -6 8 C-6.66 7.67 -7.32 7.34 -8 7 C-5.36 4.69 -2.72 2.38 0 0 Z " fill="#606964" transform="translate(78,92)"/>
<path d="M0 0 C-0.33 0.66 -0.66 1.32 -1 2 C-4.3 2 -7.6 2 -11 2 C-4.2 -1.4 -4.2 -1.4 0 0 Z " fill="#50BD8B" transform="translate(223,307)"/>
<path d="M0 0 C0.6875 1.75 0.6875 1.75 1 4 C-0.3125 6.25 -0.3125 6.25 -2 8 C-2.66 8 -3.32 8 -4 8 C-2.87548273 5.0280615 -1.77706209 2.66559313 0 0 Z " fill="#49B787" transform="translate(177,235)"/>
<path d="M0 0 C0.33 1.32 0.66 2.64 1 4 C-1.375 5.5625 -1.375 5.5625 -4 7 C-4.66 6.67 -5.32 6.34 -6 6 C-4.02 4.02 -2.04 2.04 0 0 Z " fill="#56C897" transform="translate(412,132)"/>
<path d="M0 0 C0.66 0.33 1.32 0.66 2 1 C1 4 1 4 -1.4375 5.75 C-2.7059375 6.36875 -2.7059375 6.36875 -4 7 C-4.66 6.67 -5.32 6.34 -6 6 C-4.02 4.02 -2.04 2.04 0 0 Z " fill="#54C39D" transform="translate(419,125)"/>
<path d="M0 0 C2.64 0 5.28 0 8 0 C7.67 0.66 7.34 1.32 7 2 C6.34 2 5.68 2 5 2 C5 2.66 5 3.32 5 4 C1.125 2.25 1.125 2.25 0 0 Z " fill="#11A663" transform="translate(164,338)"/>
<path d="M0 0 C0.33 0 0.66 0 1 0 C1.36923077 7.50769231 1.36923077 7.50769231 -0.5 10 C-0.995 10.33 -1.49 10.66 -2 11 C-1 3.57142857 -1 3.57142857 0 0 Z " fill="#31A772" transform="translate(160,287)"/>
<path d="M0 0 C1.2065625 0.0309375 1.2065625 0.0309375 2.4375 0.0625 C0.7875 1.7125 -0.8625 3.3625 -2.5625 5.0625 C-3.125 3.125 -3.125 3.125 -3.5625 1.0625 C-2.5625 0.0625 -2.5625 0.0625 0 0 Z " fill="#40BF96" transform="translate(239.5625,216.9375)"/>
<path d="M0 0 C1.32 0 2.64 0 4 0 C4 0.99 4 1.98 4 3 C4.99 3.33 5.98 3.66 7 4 C6.67 4.99 6.34 5.98 6 7 C4.02 4.69 2.04 2.38 0 0 Z " fill="#2AA56C" transform="translate(363,161)"/>
<path d="M0 0 C2.97 0.495 2.97 0.495 6 1 C6 2.65 6 4.3 6 6 C3.97945196 4.35830472 1.97956942 2.69088222 0 1 C0 0.67 0 0.34 0 0 Z " fill="#28AA72" transform="translate(341,139)"/>
<path d="M0 0 C0.99 0.33 1.98 0.66 3 1 C3.33 2.65 3.66 4.3 4 6 C2.68 5.67 1.36 5.34 0 5 C0 3.35 0 1.7 0 0 Z " fill="#3FB581" transform="translate(449,96)"/>
<path d="M0 0 C0 3.90838866 -1.50567876 5.11594107 -4 8 C-4.99 7.67 -5.98 7.34 -7 7 C-4.69 4.69 -2.38 2.38 0 0 Z " fill="#32AA73" transform="translate(324,88)"/>
</svg>
